<?xml version="1.0" encoding="utf-8"?>
<!-- Designed by Vexels.com - 2019 All Rights Reserved - https://vexels.com/terms-and-conditions/  -->
<svg version="1.1" id="Layer_1" xmlns="http://www.w3.org/2000/svg" xmlns:xlink="http://www.w3.org/1999/xlink" x="0px" y="0px"
	 viewBox="0 0 1200 1200" enable-background="new 0 0 1200 1200" xml:space="preserve">
<path d="M1152.218,593.64l-32.789-14.141l20.687-5.82l5.164-6.646l-4.817-6.891L701.2,411.707l-1.376-0.302l-184.357-21.6
	l-1.908,0.197l-1.002,0.302L398.45,436.387l20.187-68.462l0.12-0.963l0.002-0.339l-0.146-1.396l-26.992-98.382l-0.659-1.377
	l-0.955-1.219l-0.679-0.646l-84.188-64.183l-2.049-0.925l-0.746-0.148l-1.463-0.082l-0.837,0.067l-98.491,30.436l-0.898,0.378
	l-1.554,1.016l-0.474,0.436l-1.213,1.702l-37.335,90.241l-0.53,2.984L56.065,436.911l-6.308,4.049l-3.074,7.565l6.079,5.438
	l43.934,5.157l3.316-0.387l1.09-0.488l120.954-68.996l25.955-0.516l-22.405,27.287l-70.988,110.762l-0.63,1.258l-0.683,2.583
	v119.935l0.667,2.75l0.302,0.553l1.457,1.88l146.738,116.334l1.316,0.691l239.037,73.504l-12.415,100.437l-101.495,3.37
	l-6.608,7.083v8.532l-25.088,7.955l-4.796,4.891l1.502,6.591l16.12,17.895l1.044,0.736l0.853,0.206l2.679,0.301l113.7,0.023
	l46.166-11.546l0.386-0.051l0.348-0.083l0.695-0.297l0.719-0.393l0.707-0.523l0.702-0.664l0.593-0.758l0.493-0.823l0.552-1.463
	l12.142-69.388l1.277-76.152l206.278-29.884h0.005l0.136,0.1l3.333-0.427l0.338,0.177l166.648-35.85h141.61l6.949-5.896
	l-4.192-8.033l-114.332-48.333l142.231,25.523l1.271,0.101l5.759-2.963l0.445-7.561l-41.867-75.698l-0.626-0.758l-1.063-0.94
	l-64.812-45.301l108.203,0.829l6.937-5.633L1152.218,593.64L1152.218,593.64z M158.36,362.04l-2.007,2.884l-0.648-0.359l1.537-2.735
	L158.36,362.04L158.36,362.04z M175.017,371.162l-78.08,77.368l-34.316-4.028l2.821-2.993L175.017,371.162L175.017,371.162z
	 M206.516,321.495l-3.895-1.889l-21.992-0.084l55.158-30.727l0.408,0.244l13.899,6.559l-46.45,46.961l3.833-16.844L206.516,321.495
	L206.516,321.495z M1102.52,583.097l31.284,13.492l-92.601-0.709l57.139-16.078l1.566,0.675L1102.52,583.097L1102.52,583.097z
	 M954.627,705.669l141.196,59.596H970.99l-27.569-65.803l8.584,3.617L954.627,705.669L954.627,705.669z M524.843,994.265H429.16
	l104.181-37.639l0.136-0.011L524.843,994.265L524.843,994.265z M415.606,993.793l-10.88-12.129l23.616-7.563l2.583-1.926
	l80.166-12.846L415.606,993.793L415.606,993.793z M1097.842,574.748L1097.842,574.748L912.245,626.97l-201.47-201.471
	l416.864,140.865L1097.842,574.748L1097.842,574.748z M963.044,759.292L812.088,632.703l97.765-0.423L963.044,759.292
	L963.044,759.292z M543.771,955.412l30.651,1.16l-3.589,23.117L543.771,955.412L543.771,955.412z M572.319,951.49l-32.274-1.222
	l12.386-100.207l29.421,66.291l-0.044,1.616l-6.501,33.635L572.319,951.49L572.319,951.49z M304.025,759.98L164.858,649.629
	l134.238-105.597L304.025,759.98L304.025,759.98z M382.38,270.878l24.256,88.433l-127.695-83.128l103.432-5.311L382.38,270.878
	L382.38,270.878z M248.444,273.883l12.599-3.58l3.533,3.951l-9.973,12.414l-9.744-4.598L248.444,273.883L248.444,273.883z
	 M275.314,271.362l-0.458-0.614l-7.635-8.536l34.183-53.091l74.817,57.061L275.314,271.362L275.314,271.362z M259.931,296.003
	l13.836-17.223l130.828,85.167l-138.803,13.718l-6.743-80.812L259.931,296.003L259.931,296.003z M905.503,627.299l-98.708,0.427
	l-98.467-197.603L905.503,627.299L905.503,627.299z M547.083,831.847L306.35,540.938l195.276-22.21L547.083,831.847L547.083,831.847
	z M496.051,514.328l-188.061,21.39l80.201-85.031L496.051,514.328L496.051,514.328z M291.096,437.571l-22.401-51.526l107.496,58.075
	L291.096,437.571L291.096,437.571z M382.334,449.607l-79.017,83.776l-11.063-90.709L382.334,449.607L382.334,449.607z
	 M698.286,421.293l0.062,0.014l101.816,204.324L509.952,515.645l187.527-94.447L698.286,421.293L698.286,421.293z M501.644,511.823
	L394.663,448.7l117.78-47.564L501.644,511.823L501.644,511.823z M297.532,527.25l-60.304-103.333l49.881,17.871L297.532,527.25
	L297.532,527.25z M296.95,536.17l-130.931-8.646l65.88-102.821L296.95,536.17L296.95,536.17z M163.306,532.369l131.325,8.672
	L163.306,644.347V532.369L163.306,532.369z M304.145,546.116l239.437,289.343l-234.477-72.071L304.145,546.116L304.145,546.116z
	 M586.008,832.711l-33.106,4.421l-45.615-314.207l286.098,279.855L586.008,832.711L586.008,832.711z M514.051,522.546
	l288.634,109.388l-6.222,166.862L514.051,522.546L514.051,522.546z M506.681,511.695l10.889-111.607l170.894,20.053L506.681,511.695
	L506.681,511.695z M385.923,443.484l-0.041,0.186l-113.987-61.582l136.162-13.458L385.923,443.484L385.923,443.484z
	 M294.621,210.417l-31.702,49.238l-1.602,0.174l-16.932,4.811l-34.114-28.103L294.621,210.417L294.621,210.417z M205.421,239.02
	l34.814,28.68l-6.486,14.813l-0.418,1.928l-60.647,33.784L205.421,239.02L205.421,239.02z M254.176,298.58l6.623,79.377
	l-38.513,0.767l-21.723-22.621l0.981-4.31L254.176,298.58L254.176,298.58z M212.439,382.906l-99.381,56.69l78.819-78.101
	L212.439,382.906L212.439,382.906z M262.633,386.693l0.535-0.82l21.641,49.779l-48.22-17.276L262.633,386.693L262.633,386.693z
	 M487.301,958.155l-54.995,8.813v-6.991L487.301,958.155L487.301,958.155z M538.438,957.346l29.45,26.42l-37.702,9.526
	L538.438,957.346L538.438,957.346z M582.052,904.475l-25.608-57.698l26.631-3.203L582.052,904.475L582.052,904.475z
	 M807.558,635.432L963.809,766.46l-162.448,35.169L807.558,635.432L807.558,635.432z M951.104,694.47l148.735-34.769l37.684,68.253
	L951.104,694.47L951.104,694.47z M1022.288,605.38l72.17,50.444l-154.22,36.05l-25.327-60.461l104.763-29.476l0.611,0.427
	L1022.288,605.38L1022.288,605.38z M168.87,330.186l0.538-0.707l26.934,0.103l-5.849,25.703l-27.567,17.698l8.052-11.563
	l0.526-4.748l-3.699-3.022l-12.233-2.314l-5.289,2.464l-5.76,10.254l-0.451,3.814l2.388,3.009l8.997,4.981l2.052,0.604
	l-78.386,50.324L168.87,330.186L168.87,330.186z"/>
</svg>
