<?xml version="1.0" encoding="utf-8"?>
<!-- Designed by Vexels.com - 2019 All Rights Reserved - https://vexels.com/terms-and-conditions/  -->
<svg version="1.1" id="Layer_1" xmlns="http://www.w3.org/2000/svg" xmlns:xlink="http://www.w3.org/1999/xlink" x="0px" y="0px"
	 viewBox="0 0 1200 1200" enable-background="new 0 0 1200 1200" xml:space="preserve">
<path d="M240.465,990.625l-72.979,8.877l-1.234,0.278l-0.173,0.056l-2.2,1.239l-21.996,21.931l-47.831,38.218l-0.196,0.197
	l-0.873,1.06l-0.319,0.531l-0.536,1.265l-0.169,0.613l-0.147,2.026l3.681,47.687l5.547,6.334l1.455,0.152l6.182-3.69l12.808-23.761
	l25.344-6.333l193.548,33.729l81.221,6.569l65.161,28.552l1.938,0.343l0.192,0.004l1.236-0.11l323.726-57.926l32.78,17.736
	l1.045,0.315l3.548-0.184l47.549-15.11l3.791-2.905l11.77-18.364l190.67-22.088l1.063-0.236l1.008-0.357l1.003-0.566l1.028-0.83
	l0.74-0.871l0.675-1.125l0.339-0.885l0.279-1.1l0.072-1l-0.123-1.144l-0.221-0.969l-0.551-1.259l-0.631-0.976l-0.99-1.002
	l-0.939-0.688l-1.173-0.536l-1.127-0.337l-328.229-60.471v-28.11l19.182-18.741l0.501-0.71l0.383-0.727l27.677-88.032l0.186-0.877
	l0.1-0.964l-11.738-186.787l69.06-68.682l1.444-7.875l-6.884-4.109l-65.081,4.526l63.972-28.588l3.823-8.556l-8.092-4.739
	l-108.646,22.156l84.671-52.959l2.693-8.804l-8.341-3.904l-106.5,30.323l83.246-85.231l0.658-9.025l-8.788-2.179L716.7,477.244
	l39.619-54.343l-0.688-9.078l-9.063-0.774l-60.607,43.214l-5.961-15.01l34.847-205.904l-2.175-6.345l-6.505-1.627l-57.66,14.869
	l56.176-72.499l-0.429-9.119l-9.06-1l-116.607,79.085l75.352-121.54l-1.726-9.295l-9.401,0.831L537.665,222.527l86.096-157.656
	l-2.357-9.262l-9.412,1.664L489.991,218.568l74.826-162.106l-2.959-9.074l-9.276,2.259L443.706,214.239L485.778,113.8l-3.195-8.928
	l-9.164,2.377L359.595,282.068l-9.53,22.681L226.997,536.227l-0.24,6.109l119.349,273.729l7.583,22.75l-30.512,124.442
	L240.465,990.625L240.465,990.625z M422.745,264.05L539.347,87.779l-77.842,168.64l-0.442,2.098l-6.388,13.838l-41.206,4.854
	l7.726-11.679L422.745,264.05L422.745,264.05z M470.033,261.53L595.705,95.382L509.5,253.237l-0.582,2.06l-6.226,11.4l-40.803,4.808
	l6.503-8.597L470.033,261.53L470.033,261.53z M517.562,259.026l111.481-120.679l-71.321,115.04l-0.696,2.029l-3.265,5.265
	l-43.064,5.073l5.096-5.516L517.562,259.026L517.562,259.026z M631.649,247.674l-0.915,1.962l-1.687,2.176l-62.884,7.409
	l119.158-80.816L631.649,247.674L631.649,247.674z M636.849,255.579l67.37-17.373l-33.814,199.81L374.268,286.863l82.38-9.904h0.002
	l98.891-11h0.002l75.132-9.078l0.331-0.175l3.684-1.006L636.849,255.579L636.849,255.579z M702.913,495.181l96.672-47.616
	l-84.181,86.188l-14.581-38.075l0,0L702.913,495.181L702.913,495.181z M734.364,568.883l-1.519,1.513l-2.749,1.719l-11.417-29.812
	l1.608-0.183l104.379-29.719L734.364,568.883L734.364,568.883z M738.014,578.021l109.225-22.273l-65.021,29.057l-1.713,1.288
	l-8.514,3.805l-1.405,2.888l2.6,1.888l9.301-0.647l2.118,0.331l85.25-5.929l-63.9,63.551l-72.606-71.372l-0.753-1.968l3.279-0.669
	L738.014,578.021L738.014,578.021z M357.137,817.537l-94.376-276.19l407.971-96.284l58.67,153.2l0.347,3.45l-365.62,231.858
	L357.137,817.537L357.137,817.537z M359.202,308.821l1.91-4.568l6.476-12.18l135.979,187.304L263.67,535.994l93.013-222.392
	L359.202,308.821L359.202,308.821z M817.658,1089.153l-21.534-20.331l22.245-9.12l23.901,42.836L817.658,1089.153L817.658,1089.153z
	 M487.067,1145.428l-102.825-63.065l398.566-12.591l0.814,1l20.428,19.286l-314.799,56.328L487.067,1145.428L487.067,1145.428z
	 M153.701,1025.33l14.37-14.369l7.812,13.39l-0.095,0.158l-21.872,0.926L153.701,1025.33L153.701,1025.33z M172.683,1008.944
	l54.378-6.61l-23.059,12.751l-4.227-0.44l-19.721,6.936L172.683,1008.944L172.683,1008.944z M803.391,656.932l0.027,0.434
	l-39.475,184.425l-24.659-245.193l-0.306-1.288l-1.324-3.458l65.732,64.615L803.391,656.932L803.391,656.932z M767.282,988.262
	l-22.089,14.106l14.526-111.103l8.061,59.803l-0.555,2.232v34.375L767.282,988.262L767.282,988.262z M785.159,1062.51l-2.5,2.264
	l-399.454,12.619l124.554-100.198l233.671,32.392l68.72,42.677L785.159,1062.51L785.159,1062.51z M204.472,1031.119l-9.005,4.218
	l-6.212-6.392l10.5-3.693L204.472,1031.119L204.472,1031.119z M325.042,1014.456l26.205,8.063l-17.725,21.789l-0.102,0.154
	l-105.688-12.821l95.031-18.679L325.042,1014.456L325.042,1014.456z M740.019,1004.344l-226.229-31.36l243.124-102.51l0.519,3.84
	L740.019,1004.344L740.019,1004.344z M750.693,867.67L506.484,970.638l-138.63-129.143L750.693,867.67L750.693,867.67z
	 M495.299,980.801l-117.456,94.487l-33.476-28.465l19.317-23.747l0.987-2.038L495.299,980.801L495.299,980.801z M176.634,1030.308
	l11.668,12.004l-25-12.27l12.707-0.538L176.634,1030.308L176.634,1030.308z M183.012,1050.78l-33.788,23.616v-40.199
	L183.012,1050.78L183.012,1050.78z M197.653,1049.64l-1.699-3.384l0.03-0.152l16.144-7.529l20.998,47.167l-35.617-34.51
	L197.653,1049.64L197.653,1049.64z M242.173,1093.773l-25.773-57.896l0.337-0.532l116.088,14.082l1.338,1.846l32.977,28.041
	l-22.611,12.87l-2.298,2.851l-0.141,0.449l-98.188-1.409L242.173,1093.773L242.173,1093.773z M912.458,1056.288l-62.612,49.567
	l-26.048-46.683L912.458,1056.288L912.458,1056.288z M730.309,607.279l25.72,255.744l-387.255-26.478L730.309,607.279
	L730.309,607.279z M213.953,1026.952l-6.487-8.069l23.308-12.889L213.953,1026.952L213.953,1026.952z M144.224,1077.684
	l-26.816,6.682l-14.6-17.279l41.416-33.032V1077.684L144.224,1077.684z M194.238,1055.027l38.246,37.057l-73.045-12.734
	L194.238,1055.027L194.238,1055.027z M337.426,1110.378l-62.265-10.855l65.369,0.938L337.426,1110.378L337.426,1110.378z
	 M929.011,1053.273l-0.142-5.011l-4.416-2.371l-106.371,3.459l-1.734,0.371l-0.49,0.201l-62.643-38.903l327.661,39.572
	l-160.494,18.593L929.011,1053.273L929.011,1053.273z M762.709,997.117l7.59-4.846l1.03,0.321l245.477,45.226l-267.284-32.28
	L762.709,997.117L762.709,997.117z M769.77,890.969l17.951,40.298l-11.065,10.755L769.77,890.969L769.77,890.969z M766.494,866.678
	l47.285-17.223l-23.558,75.136l-22.828-51.248L766.494,866.678L766.494,866.678z M765.932,861.561l-0.354-3.518l39.004-182.224
	l10.581,167.811L765.932,861.561L765.932,861.561z M665.478,441.115l-157.392,35.977L373.938,292.309L665.478,441.115
	L665.478,441.115z M501.67,972.987l-0.429,0.752L363.2,1016.26l-1.923-1.118l-29.688-9.135l0.774-38.218l30.443-124.163
	L501.67,972.987L501.67,972.987z M321.544,1008.106l-102.172,20.083l22.17-27.623l0.577-0.066l0.998-0.22l79.114-26.177
	L321.544,1008.106L321.544,1008.106z M104.682,1103.729l-2.255-29.222l11.005,12.99L104.682,1103.729L104.682,1103.729z
	 M351.185,1099.9l27.017-15.377l75.196,46.12l-28.552-12.537l-1.608-0.406l-75.711-6.115L351.185,1099.9L351.185,1099.9z
	 M862.414,1102.282l50.19-39.733l-17.883,29.466L862.414,1102.282L862.414,1102.282z M697.401,486.741l-7.928-20.7l47.942-34.185
	L697.401,486.741L697.401,486.741z M413.963,259.36l-0.367,2.115l-6.927,16.535l-35.252,4.153l92.438-141.911L413.963,259.36
	L413.963,259.36z M331.278,361.387l-74.112,177.202l-0.175,0.711l0.011,0.61l0.115,0.48l73.815,215.853l-94.434-216.585
	L331.278,361.387L331.278,361.387z"/>
</svg>
