<?xml version="1.0" encoding="utf-8"?>
<!-- Designed by Vexels.com - 2019 All Rights Reserved - https://vexels.com/terms-and-conditions/  -->
<svg version="1.1" id="Layer_1" xmlns="http://www.w3.org/2000/svg" xmlns:xlink="http://www.w3.org/1999/xlink" x="0px" y="0px"
	 viewBox="0 0 1200 1200" enable-background="new 0 0 1200 1200" xml:space="preserve">
<path d="M103.152,637.127l0.386,1.41l134.693,338.25l4.128,4.267l294.351,174.392v0l1.467,0.652l0.423,0.134l2.027,0.269
	l2.016-0.269l191.439-66.207l1.945-1.123l180.132-142.963l114.581-68.771l0.803-0.638l0.79-0.807l0.414-0.565l66.544-115.739
	l0.682-2.33l0.042-0.849l-0.168-1.723l-0.188-0.806l-50.673-97.245l-0.432-0.674l-1.32-1.511l-0.423-0.36l-1.997-1.104
	l-55.716-20.688l31.01-121.516l0.22-2.551l-25.658-321.28l-0.292-1.488l-40.112-99.865v-0.002l-0.039-0.165l-0.098-0.244
	l-1.345-2.003l-0.593-0.571l-1.335-0.943l-0.913-0.471l-36.514-10.729l-53.674-23.153l-9.081,2.143l-0.531,9.301l12.952,19.622
	l-22.826-17.365l-9.507,0.04l-2.404,9.185l27.857,66.123l13.965,158.907l-35.286,221.475l0.023,1.949l21.585,96.073l-19.319,35.032
	l-53.265-154.146l-22.146-223.652l-0.171-0.781l-0.285-0.76l-54.601-106.657l-8.919-50.005L690.083,107h-0.049l-7.616,6.801
	l-1.145,7.442l-1.422-7.522l-7.313-6.323l-7.87,5.763l-3.098,11.445l-0.869-10.061l-7.085-7.101l-8.182,5.646l-36.837,125.125
	l-0.337,2.014l-1.388,39.824l-6.303,1.366l-18.245,13.588l20.835-35.906l-1.347-9.54l-9.585-0.948l-125.053,79.269l-1.289,1.033
	l-1.604,2.283l-76.629,209.853L359.72,706.202l-24.274-6.071l-69.721-92.049l2.737-41.993l-0.09-1.673l-0.583-1.981l-46.342-90.83
	l10.426-25.906l46.535-37.408l2.164-9.391l-8.636-4.314l-34.784,7.207l10.838-6.691l3.115-9.595l-8.968-4.634l-64.068,14.804
	l-9.176,0.508l-63.436,51.925l-0.713,0.783l-0.519,0.69l-0.617,1.147l-0.271,0.762l-0.097,1.051L103.152,637.127L103.152,637.127z
	 M640.658,167.832l10.962-38.781l3.262,37.762L640.658,167.832L640.658,167.832z M1014.838,874.727l-103.942,62.361l-63.902-128.266
	l99.309,74.12l0.03,0.012l0.037,0.023l0.533,0.208l0.54,0.074l-0.057,0.006l-0.12-0.131V883h0.269l0.021,0.131l0.293,0.048
	L1014.838,874.727L1014.838,874.727z M245.977,968.417L115.073,639.672l212.689,68.969L245.977,968.417L245.977,968.417z
	 M211.228,474.229l42.349,82.97l-132.831-99.093L211.228,474.229L211.228,474.229z M552.567,319.55l27.343,89.55l-104.095-74.496
	l68.197-43.07L552.567,319.55L552.567,319.55z M492.674,352.817l87.398,62.548L400.245,536.384l72.313-197.962L492.674,352.817
	L492.674,352.817z M752.154,278.771l20.701,209.458l-158.674-70.637L752.154,278.771L752.154,278.771z M866.833,613.615
	l-21.083-93.601l161.473-0.536l-28.525,111.769l-6.723,1.769L866.833,613.615L866.833,613.615z M1041.217,663.83l45.524,87.155
	l-37.968-16.608l-1.831-3.344l-47.072-37.606L1041.217,663.83L1041.217,663.83z M1088.687,757.294l-30.443,52.943l4.604-15.61
	l2.794-2.792l1.346-4.628l-1.261-2.347l4.257-14.455l-0.335-2.117l-18.845-27.564L1088.687,757.294L1088.687,757.294z
	 M1047.543,828.848l-20.45,35.564l-7.192-24.671l-0.104-0.247l35.656-37.478L1047.543,828.848L1047.543,828.848z M729.446,1080.75
	l-167.658,57.99l203.415-123.928L729.446,1080.75L729.446,1080.75z M538.253,1144.393L262.748,981.228l278.079,76.255
	L538.253,1144.393L538.253,1144.393z M540.316,606.109l11.171,165.693l-179.666-56.777L540.316,606.109L540.316,606.109z
	 M554.238,777.792L648.162,780l-104.336,87.534l-111.284-86.047L554.238,777.792L554.238,777.792z M538.703,869.893l-284.623,98.386
	l171.7-185.701L538.703,869.893L538.703,869.893z M548.182,870.408l105.859-88.814l111.605,219.626L548.182,870.408L548.182,870.408
	z M426.549,776.667l-52.173-55.59l165.063,52.162L426.549,776.667L426.549,776.667z M543.603,873.489l221.466,133.219
	l-221.605,46.312l-289.54-79.397L543.603,873.489L543.603,873.489z M840.545,807.09l66.082,132.642l-130.585,63.295L840.545,807.09
	L840.545,807.09z M983.524,699.288l-32.68,24.562l-25.648-27.74L983.524,699.288L983.524,699.288z M1014.223,726.338l20.687,7.882
	l2.645,2.113l-9.39,18.977l-11.981,4.429l-12.311-37.344L1014.223,726.338L1014.223,726.338z M1022.592,776.12l-1.47-7.546
	l6.393-2.363l0.938,8.278L1022.592,776.12L1022.592,776.12z M886.344,717.138l21.26-23.438l32.499,33.263l-11.375,5.008
	l-1.147,0.712L886.344,717.138L886.344,717.138z M944.595,746.518l-6.037-7.949l7.354-3.238l2.816,6.629L944.595,746.518
	L944.595,746.518z M925.816,737.362l0.945,2.21l9.507,12.517l-35.344,13.803l-14.81-43.496L925.816,737.362L925.816,737.362z
	 M976.327,770h14.468l7.604,23.282l-17.45,3.853l-14.131-10.455L976.327,770L976.327,770z M992.472,760h-19.039l-3.159,1.313
	l-19.186-7.157l7.197-7.893l1.285-3.216l37.246-20.539L992.472,760L992.472,760z M946.074,758.995l1.117-0.61l0.052-0.038
	l0.007-0.002l0.015-0.008v-0.16l0.042-0.177h0.002l0.013,0.212l0.009,0.03l0.006-0.115l0.008-0.127h0.005l0.008,0.126l0.014,0.056
	l0.052-0.009l20.01,7.574l-10.44,18.174l-33.272-16.203L946.074,758.995L946.074,758.995z M999.161,763.795l-1.77-2.447l3.644-31.59
	l10.643,32.285l-1.183,4.27l1.679,8.624l-12.205-8.692L999.161,763.795L999.161,763.795z M958.006,738.226l-4.349-10.235
	l37.626-28.28l0.462,0.025l0.752,0.601l4.433,16.599L958.006,738.226L958.006,738.226z M905.879,688.204l-23.313,25.636
	l-21.841-41.204l96.995-25.527L905.879,688.204L905.879,688.204z M955.594,820.38L909.62,773.23l7.763-3.031l37.893,18.458
	l2.024,3.679l19.562,14.287l0.726,0.437l-0.935,14.573L955.594,820.38L955.594,820.38z M982.586,807.244l0.689-0.292l22.665-4.888
	l3.285-2.403l0.41-4.048l-7.028-21.351l10.953,7.8l0.25,1.281l2.279,3.298l1.616,0.62l-2.148,40.485l-4.772,4.769l-29.144-10.532
	L982.586,807.244L982.586,807.244z M1022.754,786.455l10.954-3.049l19.285,6.93l-32.15,32.128L1022.754,786.455L1022.754,786.455z
	 M1001.938,716.307l-2.86-10.713l23.028,18.397L1001.938,716.307L1001.938,716.307z M859.395,680.802l19.829,37.408l-32.181,63.14
	L859.395,680.802L859.395,680.802z M845.664,795.067l35.917-70.471l14.987,44.021l-0.683,1.644l-0.095,0.679L845.664,795.067
	L845.664,795.067z M949.786,828.748l3.283,1.5l19.506,1.159l-24.745,43.755l-37.762-87.15L949.786,828.748L949.786,828.748z
	 M917.139,685.656l52.633-41.719l5.805-1.528l13.892,47.188L917.139,685.656L917.139,685.656z M1010.361,843.002l1.706,0.301
	l3.088-1.098l0.289,0.114l5.874,20.148l-25.971-24.917L1010.361,843.002L1010.361,843.002z M1061.162,782.645l-22.642-8.136
	l-1.622-14.3l8.889-17.965l19.064,27.886L1061.162,782.645L1061.162,782.645z M833.82,691.451l3.104,90.255l-2.49,20.269
	l2.434,0.299l-55.618,168.945L833.82,691.451L833.82,691.451z M396.156,751.59l25.925,27.623L258.367,956.276l108.357-236.045
	L396.156,751.59L396.156,751.59z M543.262,1144.171l2.563-86.536l212.299-44.367L543.262,1144.171L543.262,1144.171z
	 M773.635,1009.751l117.031-56.726l-151.455,120.204L773.635,1009.751L773.635,1009.751z M844.872,800.997l52.99-25.503l2.397,2.458
	l41.247,95.193L844.872,800.997L844.872,800.997z M866.801,618.694l93.816,17.312l-101.216,26.638L866.801,618.694L866.801,618.694z
	 M854.089,664.082l-3.214,4.061l-10.042,81.745l-2.768-80.532l21.789-39.511L854.089,664.082L854.089,664.082z M832.612,670.804
	L801.224,837.84v0.001l-30.503,162.328l-188.265-370.51L832.612,670.804L832.612,670.804z M581.329,621.105l30.497-199.088
	l158.805,70.695L581.329,621.105L581.329,621.105z M400.574,542.19l180.063-121.178L540.73,598.293L400.574,542.19L400.574,542.19z
	 M537.108,602.229L369.414,710.627l27.791-164.399L537.108,602.229L537.108,602.229z M259.795,941.179l72.774-231.155l29.905,7.479
	L259.795,941.179L259.795,941.179z M121.202,636.403l135.48-23.21l67.413,89.002L121.202,636.403L121.202,636.403z M113.265,632.688
	V458.776L258.089,566.81l-2.702,41.531L113.265,632.688L113.265,632.688z M952.163,877.656l25.973-45.918l1.453,0.086l4.136,1.502
	l37.102,35.598L952.163,877.656L952.163,877.656z M1036.82,660.829l-41.151,29.457l-0.874-0.306l-14.379-48.844l1.973-0.519
	L1036.82,660.829L1036.82,660.829z M931.505,92.642l-31.56,14.438l12.197-26.43l27.787,8.138L931.505,92.642L931.505,92.642z
	 M899.536,112.766l46.187-21.129l35.229,87.672L899.536,112.766L899.536,112.766z M869,133.7l22.858-16.331l-13.773,150.068
	l-11.598-131.941L869,133.7L869,133.7z M881.961,279.903l14.945-162.83l86.259,70.502L881.148,288.763L881.961,279.903
	L881.961,279.903z M919.638,257.629l59.726-59.24L848.178,498.578l32.193-202.002L919.638,257.629L919.638,257.629z
	 M846.454,515.012l138.743-317.484l24.834,310.937l-1.531,6.009L846.454,515.012L846.454,515.012z M907.432,78.925l-12.974,28.111
	l-31.107-47.126L907.432,78.925L907.432,78.925z M890.634,112.098l-25.673,18.342l-23.48-55.734L890.634,112.098L890.634,112.098z
	 M707.866,645.219l-123.284-20.278L773.69,496.679l0.072,0.733l0.125,0.571l57.922,167.623L707.866,645.219L707.866,645.219z
	 M684.939,164.663l5.353-34.319l6.001,33.512L684.939,164.663L684.939,164.663z M679.01,165.086l-18.087,1.294l10.826-39.973
	L679.01,165.086L679.01,165.086z M697.488,168.808l0.284-0.032l51.651,100.794l-130.207-30.86L639.175,173L697.488,168.808
	L697.488,168.808z M684.508,259.306l64.692,15.343L612.572,412.117l5.872-168.479L684.508,259.306L684.508,259.306z
	 M602.078,417.668l-31.857,208.095l0.072,1.8l0.086,0.509l0.442,1.351l71.172,140.134l-80.466-1.889l-11.149-165.361l41.782-185.804
	l0.089-0.944l-0.092-1.201l-0.247-1.207l-13.974-45.769l28.069-62.433L602.078,417.668L602.078,417.668z M570.074,359.763
	l-10.646-34.865l39.571-29.472L570.074,359.763L570.074,359.763z M557.24,317.729l-8.846-28.971l40.709-25.945L557.24,317.729
	L557.24,317.729z M225.35,437.733l-24.011-18.008l62.526-12.954L225.35,437.733L225.35,437.733z M195.544,415.379l-13.428-10.071
	l47.528-10.982L195.544,415.379L195.544,415.379z M222.367,441.746l-11.037,27.423l-94.758-16.885l57.325-46.891L222.367,441.746
	L222.367,441.746z"/>
</svg>
