<?xml version="1.0" encoding="utf-8"?>
<!-- Designed by Vexels.com - 2019 All Rights Reserved - https://vexels.com/terms-and-conditions/  -->
<svg version="1.1" id="Layer_1" xmlns="http://www.w3.org/2000/svg" xmlns:xlink="http://www.w3.org/1999/xlink" x="0px" y="0px"
	 viewBox="0 0 1200 1200" enable-background="new 0 0 1200 1200" xml:space="preserve">
<path d="M117.44,516.916l7.766,3.405l4.616-7.1l-5.861-46.021l39.766-49.316l8.03,45.898l6.54,5.412l6.388-5.594l7.215-49.012
	l27.614-26.363l-10.486,125.277l5.453,7.007l1.073,0.088l6.35-4.955L258.6,369.367l75.444-22.311l194.254,47.953l15.86,56.583
	l-41.705,259.905l0.362,3.375l0.512,1.058l0.55,0.766l28.836,29.127l44.591,342.905l-28.553,36.432l-0.731,6.863l5.886,3.631h24.981
	l3.433,15.734l6.396,5.266h101.116l6.388-5.188l-3.6-7.399l-81.699-38.482L578.78,792.304l206.01,207.806l2.368,56.632l2.949,5.194
	l5.967,0.627l18.604-7.243l97.457,79.341l0.854,0.47l0.693,0.284l3.16,0.237l36.172-6.276l4.499-3.803l-1.338-7.114L567.879,719.476
	l-10.368-41.792l31.743-224.638l33.564-74.049l70.856,2.257l76.385,69.053l0.834,0.539l0.619,0.284l0.56,0.189l1.218,0.254
	l83.824,8.627l1.798-0.065l1.146-0.322l0.846-0.377l0.464-0.285l0.76-0.583l51.539-55.344l0.539-0.909l0.317-0.754l0.293-1.299
	l0.048-0.442l-3.688-73.468l-0.341-2.037l-26.57-67.864v-70.699l38.332-14.774l25.961,49.692l0.21,0.325l0.374,0.458l1.015,0.886
	l0.779,0.471l71.001,27.739l25.096,50.174l-9.604,70.727l4.333,7.053l2.158,0.366l5.646-3.23l57.938-98.6v0l0.527-1.172l0.235-0.81
	l0.117-0.964l0.009-0.807l-0.097-0.706l-0.144-0.619l-0.272-0.792l-81.685-142.475l-0.549-0.785l-0.533-0.604l-0.65-0.567
	l-0.393-0.274l-0.693-0.393l-0.935-0.365l-96.093-16.272l-1.085-0.025l-0.972,0.113l-0.93,0.27l-0.638,0.258l-83.511,53.534
	l-0.822,0.699l-0.316,0.329l-0.949,1.427l-0.247,0.59l-0.466,1.525l-0.148,0.775v106.021l0.158,0.819l0.301,0.886h0.011
	l22.355,71.911l-30.158,36.278l-34.543-33.486l13.237-117.799l-0.043-1.368l-0.108-0.651l-0.613-1.621L731.294,90.068l-2.902-2.367
	l-1.07-0.364l-181.178-40.68l-3.716,0.262L355.13,132.545l-0.482,0.324l-0.554,0.449l-0.494,0.532l-0.52,0.687l-54.908,104.727
	l-116.42,54.215l-3.107,3.042l-83.38,169.394v5.768L117.44,516.916L117.44,516.916z M503.015,715.326l-0.009-0.019L503.015,715.326
	L503.015,715.326L503.015,715.326z M162.861,403.028l-48.021,59.553l-1.067,3.77l3.504,27.512l-12.286-25.06l82.091-166.775
	l109.48-50.984l-7.837,14.963l-59.15,55.788l-64.144,79.562L162.861,403.028L162.861,403.028z M796.947,1051.49l-1.681-40.201
	l16.739,34.34L796.947,1051.49L796.947,1051.49z M591.491,1146.653l-3.811-17.293l16.823-15.668l69.89,32.961H591.491
	L591.491,1146.653z M249.595,364.165l-27.062,107.871l8.045-96.113l-0.706-2.994l4.058-48.401l56.256-53.027l39.404,66.445
	l-76.564,22.642L249.595,364.165L249.595,364.165z M845.012,432.815l8.104,16.92l-72.396-7.451l47.922-43.65L845.012,432.815
	L845.012,432.815z M832.821,395.784l0.345-0.337l29.954-35.969l-7.067,84.815L832.821,395.784L832.821,395.784z M772.343,438.941
	l-69.683-63.044l81.843-18.801L772.343,438.941L772.343,438.941z M547.458,677.581l-33.918,27.944l59.42-208.626l-25.487,180.347
	L547.458,677.581L547.458,677.581z M559.769,725.48l358.334,368.194l-123.566-96.958l-1.282-2.276L575.911,775.196l-0.001-0.166
	l-34.775-35.378h0.13v0.328l-23.062-23.119l41.083,7.93L559.769,725.48L559.769,725.48z M944.312,1120.606l0.124,0.127
	l-27.597,4.771l-17.657-40.324L944.312,1120.606L944.312,1120.606z M875.564,1066.642l15.297,12.002l17.593,40.176l-89.718-73.094
	l-1.533-0.842l-18.966-38.909L875.564,1066.642L875.564,1066.642z M586.265,1096.37l14.473,13.541l-14.473,13.528V1096.37
	L586.265,1096.37z M587.515,1090.331l-0.024-0.814L544.32,757.53l23.248,23.453l32.99,321.551L587.515,1090.331L587.515,1090.331z
	 M514.63,711.106l33.934-27.957l8.988,36.229L514.63,711.106L514.63,711.106z M578.99,454.227l-0.909,6.443l-57.833,203.054
	l33.737-210.252l25.411-2.119L578.99,454.227L578.99,454.227z M553.671,448.48l-16.53-58.976l-0.297-0.776l32.132-60.897
	l45.946,44.366l-33.546,73.973L553.671,448.48L553.671,448.48z M376.721,150.848l-9.053-8.013l260.807,61.718l-60.889,115.219
	L376.721,150.848L376.721,150.848z M360.461,143.135l201.727,178.536l-224.98,15.866l-0.442-0.109L360.461,143.135L360.461,143.135z
	 M563.995,326.556l-31.262,59.247l-179.731-44.368L563.995,326.556L563.995,326.556z M785.483,241.792L618.944,368.949l-0.157,0.03
	l-45.898-44.321L785.483,241.792L785.483,241.792z M788.649,245.666l-92.887,125.649l-68.806-2.191L788.649,245.666L788.649,245.666
	z M778.861,429.091l10.238-68.904l35.991,34.919l-47.625,43.38L778.861,429.091L778.861,429.091z M702.336,370.835l94.111-127.306
	l-12.191,108.487L702.336,370.835L702.336,370.835z M791.891,233.927l-218.238,85.067l59.899-113.348L791.891,233.927
	L791.891,233.927z M367.731,137.712L544.14,57.102l82.953,141.985L367.731,137.712L367.731,137.712z M347.209,210.5l-14.902,122.191
	l-38.7-65.229l10.428-19.91l2.21-2.151l47.847-91.33L347.209,210.5L347.209,210.5z M581.265,1099.393v26.26h-20.269
	L581.265,1099.393L581.265,1099.393z M874.265,256.623l-26.53,13.266l26.53-72.031V256.623L874.265,256.623z M904.454,391.023
	l-34.25-40.279l31.226-19.136L904.454,391.023L904.454,391.023z M869.506,345.308l9.063-75.481l22.149,56.353L869.506,345.308
	L869.506,345.308z M1001.265,173.109l-1.611-2.456h1.611V173.109L1001.265,173.109z M1000.663,187.943l-38.571,21.633l25.871-37.63
	L1000.663,187.943L1000.663,187.943z M1010.232,190.71l1.033-3.261v-21.86l-0.853-3.031l8.104-19.441l4.54,84.569L1010.232,190.71
	L1010.232,190.71z M981.757,162.745l-53.492-2.364v-39.327L981.757,162.745L981.757,162.745z M923.265,123.55v36.488l-0.114,0.008
	l-37.387,14.388L923.265,123.55L923.265,123.55z M954.849,211.284l-23.931-45.773l53.768,2.376L954.849,211.284L954.849,211.284z
	 M1005.704,192.351l16.425,47.541L960.858,216l43.249-24.255L1005.704,192.351L1005.704,192.351z M1029.043,243.036l-5.351-98.611
	l71.131,123.971l-65.127-24.56L1029.043,243.036L1029.043,243.036z M1006.011,160.653H989.3l-1.87,0.34l-50.916-39.698l80.12,13.504
	L1006.011,160.653L1006.011,160.653z M876.944,177.802l-0.648,0.364l-26.533-9.478l64.227-41.208L876.944,177.802L876.944,177.802z
	 M874.265,183.39l-28,74.954v-85.53l28,9.862V183.39L874.265,183.39z M874.472,262.006l-8.875,73.917l-18.716-60.12L874.472,262.006
	L874.472,262.006z M868.4,356.341l35.971,42.302l-43.372,46.529L868.4,356.341L868.4,356.341z M1054.379,293.06l-21.312-42.608
	l59.52,22.445L1054.379,293.06L1054.379,293.06z M1056.802,303.089l34.491-18.201l-41.641,70.865L1056.802,303.089L1056.802,303.089
	z M636.943,201.172l87.809-102.264l70.491,130.539L636.943,201.172L636.943,201.172z M632.583,198.574L550.371,57.856l170.222,38.22
	L632.583,198.574L632.583,198.574z M222.144,371.889l-38.394,36.653l-1.493,2.888l-4.345,29.51l-6.234-35.637l-1.118-2.363
	l57.787-71.659l-3.281,39.134l-0.151,0.144L222.144,371.889L222.144,371.889z"/>
<polygon points="502.956,715.204 502.929,715.141 502.956,715.204 "/>
</svg>
