<?xml version="1.0" encoding="utf-8"?>
<!-- Designed by Vexels.com - 2019 All Rights Reserved - https://vexels.com/terms-and-conditions/  -->
<svg version="1.1" id="Layer_1" xmlns="http://www.w3.org/2000/svg" xmlns:xlink="http://www.w3.org/1999/xlink" x="0px" y="0px"
	 viewBox="0 0 1200 1200" enable-background="new 0 0 1200 1200" xml:space="preserve">
<path d="M46.696,347.804l0.406,1.296l0.625,1.064l0.834,1.045L284.56,583.357l-5.577,8.5l-0.578,1.272l-0.205,0.797l-0.133,0.849
	l0.027,1.364l8.825,46.945l30.628,81.976l0.349,0.729l0.864,1.329l17.952,20.996l-92.699,33.427l-1.145,0.734l-1.104,1.099
	l-0.459,0.619l-0.502,0.977l-6.905,22.842l0.962,5.962l5.26,2.934l82.481,4.853l3.142-0.531l0.789-0.406l1.178-0.857l0.666-0.654
	l12.402-14.742l49.978,6.93l17.665,20.552l0.628,0.518l0.614,0.415l0.607,0.315l105.04,39.337l81.092,95.97l5.291,2.46l2.571-0.421
	l4.741-6.5v-28.112l-0.952-2.779l-25.289-41.401l46.144,11.164l3.031,0.034l33.87-7.836l125.348-59.198l1.49-0.96l76.984-68.719
	l0.816-0.908l0.574-0.839l62.783-112.177l35.42-81.063l38.404-134.791l5.687-40.156l30.119-15.299l79.518,3.799l2.433-0.459
	l27.294-13.578l3.243-8.968l-18.089-41.143l-0.415-0.663l-39.011-49.609l-0.809-0.851l-0.285-0.249l-2.158-1.169l-41.27-9.723
	l-1.729,0.002l-0.589,0.093l-1.993,0.761l-21.087,12.163l-7.88-28.74l-0.716-1.316l-0.584-0.736l-0.647-0.633l-0.751-0.551
	l-0.782-0.437l-0.719-0.286l-0.791-0.232l-52.855-6.25l-1.506,0.131l-0.52,0.115l-72.532,24.54l-4.592,5.344l-4.537,25.859
	l0.076,1.336l0.325,1.293l0.174,0.459l0.96,1.578l1.081,1.074l55.596,44.035l22.403,24.847l-10.427,30.322l-16.411,68.885
	l-68.478,92.734l-142.443,57.64l-103.408,3.241L481.59,564.642l-62.263-35.816l-1.064-0.354l-1.286-0.177l-83.156,5.279
	l-2.048,0.653l-0.256,0.141l-1.274,0.916l-21.003,19.166L57.792,340.917l-2.347-1.256l-0.817-0.181l-1.783-0.099l-1.144,0.219
	l-1.344,0.47l-1.046,0.671l-1.043,0.908l-0.097,0.111l-0.682,1l-0.617,1.273l-0.266,1.189l-0.1,1.352L46.696,347.804L46.696,347.804
	z M941.498,467.072l0.842-1.812l15.517-65.183l39.646,35.243l-70.626,97.509l14.397-65.454L941.498,467.072L941.498,467.072z
	 M971.905,359.349l50.91-71.357l15.974,82.841L971.905,359.349L971.905,359.349z M1106.66,340.801l21.848-12.14l-7.573,45.947
	l-69.159-3.311L1106.66,340.801L1106.66,340.801z M1074.699,352.84l-26.779,14.88l45.202-87.972l34.404,43.739L1074.699,352.84
	L1074.699,352.84z M1049.299,326.311l5.868-57.496l33.846,7.989l-43.252,84.176L1049.299,326.311L1049.299,326.311z
	 M1027.057,283.581l0.805-0.365l22.111-12.754l-8.806,86.289L1027.057,283.581L1027.057,283.581z M977.006,365.298l56.108,9.634
	l-26.381,13.401L977.006,365.298L977.006,365.298z M1000.212,389.605l-40.098,2.609l9.154-26.586L1000.212,389.605L1000.212,389.605
	z M965.751,396.857l37.713-2.454l-4.954,35.121l-36.477-32.426L965.751,396.857L965.751,396.857z M599,936.705v18.827
	l-117.759-140.08l12.088-7.469l103.864,126.07L599,936.705L599,936.705z M502.494,856.968l-79.315-29.682l46.714-9.746
	L502.494,856.968L502.494,856.968z M380.955,799.847l-41.542-5.76l-2.485,0.288l-77.278-7.893l84.009-30.242L380.955,799.847
	L380.955,799.847z M349.016,747.117l-20.968-24.525l62.13-49.823l19.25,144.971l-12.31-14.381l0,0L349.016,747.117L349.016,747.117z
	 M343.382,589.598l71.407-50.074l12.964,79.14l-0.106,0.085L343.382,589.598L343.382,589.598z M495.201,624.942l7.518,21.131
	l-65.688-26.475l40.636-43.939L495.201,624.942L495.201,624.942z M617.154,625.546l73.248,58.434l-171.29-30.911l97.293-27.668
	L617.154,625.546L617.154,625.546z M414.853,820.605l-19.674-148.164l95.681,49.115l0.348,1.61L414.853,820.605L414.853,820.605z
	 M881.305,639.864l-49.998-7.311l88.344-83.027l5.282,96.717L881.305,639.864L881.305,639.864z M483.455,712.135l-75.388-38.699
	l37.617,6.728l1.738,2.336l13.327,9.736l2.95,0.963l1.181-0.141l0.04-0.012L483.455,712.135L483.455,712.135z M399.662,666.853
	l32.075-37.584l20.021,36.856l-0.067,0.093l-5.223,9.006L399.662,666.853L399.662,666.853z M502.469,712.74l8.918-49.428
	l22.688,34.845L502.469,712.74L502.469,712.74z M463.169,678.063l-1.301,2.606l-4.915-3.59l0.997-1.719L463.169,678.063
	L463.169,678.063z M468.572,689.629l5.744-11.506l0.506-2.242l26.972-15.722l-9.69,53.706L468.572,689.629L468.572,689.629z
	 M493.222,796.276l-0.035,0.022l4.853-70.501l40.412-18.646l-14.822,96.483l-26.352-7.89L493.222,796.276L493.222,796.276z
	 M528.408,805.46l14.824-96.495l137.775,68.63l-151.944,28.501L528.408,805.46L528.408,805.46z M803.525,749.973l-107.72,22.228
	l6.087-79.884L803.525,749.973L803.525,749.973z M811.821,748.05l-0.308,0.274l-0.558,0.115l-105.634-59.926l117.587-50.272
	L811.821,748.05L811.821,748.05z M472.309,671.558l-0.166-0.108l-13.826-7.163l-2.16-0.539l-17.846-32.852l61.342,24.723
	L472.309,671.558L472.309,671.558z M817.344,743.125l10.703-105.995l92.914,13.587L817.344,743.125L817.344,743.125z
	 M696.983,690.929l-6.127,80.4L553.083,702.7L696.983,690.929L696.983,690.929z M390.347,662.364l-50.699-56.591l2.511-11.306
	l81.941,28.346L390.347,662.364L390.347,662.364z M318.511,612.64l0.668,0.061l1.079-0.118l15.676-3.464l45.642,50.946
	l-82.713-22.097L318.511,612.64L318.511,612.64z M457.747,773.973l35.043-44.72l-4.82,70.028l-1.132,0.923l-15.832,9.743
	l-2.121,2.694l-49.538,10.335L457.747,773.973L457.747,773.973z M899.587,561.521l-62.999,59.208l33.492-57.626l1.08-0.853
	l41.126-12.662L899.587,561.521L899.587,561.521z M816.693,635.461L703.89,683.688l21.176-61.709L816.693,635.461L816.693,635.461z
	 M680.448,687.265l-136.015,11.126l-3.078-1.533l-2.492-0.51l-25.552-39.244L680.448,687.265L680.448,687.265z M298.01,595.59
	l-8.346-1.799l2.332-3.542L298.01,595.59L298.01,595.59z M314.234,609.997l-18.857,24.308l-6.654-35.601l16.894,3.641
	L314.234,609.997L314.234,609.997z M384.225,671.124l-58.598,46.991l-26.004-69.593L384.225,671.124L384.225,671.124z
	 M498.599,806.579l23.448,7.021l56.076,89.654L498.599,806.579L498.599,806.579z M541.761,826.175l77.73,64.083l-44.173-10.686
	L541.761,826.175L541.761,826.175z M533.31,812.727l-1.316-2.095l156.241-29.307l-58.521,110.88L533.31,812.727L533.31,812.727z
	 M684.763,798.616l-23.216,87.19l-25.941,5.948L684.763,798.616L684.763,798.616z M694.161,782.751l1.723-0.356l86.14,46.679
	l-114.622,54.171L694.161,782.751L694.161,782.751z M786.759,825.953l-83.273-45.126l105.685-21.808L786.759,825.953
	L786.759,825.953z M814.85,757.847l2.317-1.165l0.644-0.574l40.826,6.439l-64.72,57.776l20.918-62.473L814.85,757.847
	L814.85,757.847z M843.418,755.084l-20.784-3.278l87.809-78.311l-47.407,84.684L843.418,755.084L843.418,755.084z M924.612,548.676
	l34.294,21.256l-29.457,67.311L924.612,548.676L924.612,548.676z M925.455,543.315l68.115-94.043l-33.015,115.798L925.455,543.315
	L925.455,543.315z M919.726,542.064l-43.495,13.392l57.751-78.207L919.726,542.064L919.726,542.064z M841.178,602.88l-16.668,28.678
	l-90.534-13.321l128.496-51.996L841.178,602.88L841.178,602.88z M698.485,684.032L624.95,625.37l94.684-2.967L698.485,684.032
	L698.485,684.032z M509.925,648.977l-1.01-0.407l-25.872-72.719l125.367,46.625l-96.887,27.553L509.925,648.977L509.925,648.977z
	 M432.559,617.071l-12.505-76.342l54.218,31.238L432.559,617.071L432.559,617.071z M340.148,585.479l-2.56-42.168l69.396-4.42
	l-66.672,46.754L340.148,585.479L340.148,585.479z M334.81,580.066l-18.381-18.64l16.344-14.914L334.81,580.066L334.81,580.066z
	 M305.743,564.832l26.733,27.109l-1.215,5.553L126.14,409.529L305.743,564.832L305.743,564.832z M321.612,811.486l-54.033-19.168
	l64.708,6.609l-10.57,12.565L321.612,811.486L321.612,811.486z M249.319,791.146l54.363,19.285l-59.092-3.477L249.319,791.146
	L249.319,791.146z M1126.324,372.656l6.415-38.92l12.844,29.298L1126.324,372.656L1126.324,372.656z M967.674,356.67l-21.967-24.363
	l66.882-81.283l7.95,29.176l0.661,1.446L967.674,356.67L967.674,356.67z M964.397,242.366l44.509,5.266l-62.209,75.604
	L964.397,242.366L964.397,242.366z M958.826,244.434l-18.238,83.324l-49.8-39.444L958.826,244.434L958.826,244.434z M942.242,249.18
	l-52.128,33.619l3.02-16.992L942.242,249.18L942.242,249.18z M327.422,600.758l-6.831,1.51l-152.62-147.625L327.422,600.758
	L327.422,600.758z"/>
</svg>
