<?xml version="1.0" encoding="utf-8"?>
<!-- Designed by Vexels.com - 2019 All Rights Reserved - https://vexels.com/terms-and-conditions/  -->
<svg version="1.1" id="Layer_1" xmlns="http://www.w3.org/2000/svg" xmlns:xlink="http://www.w3.org/1999/xlink" x="0px" y="0px"
	 viewBox="0 0 1200 1200" enable-background="new 0 0 1200 1200" xml:space="preserve">
<path d="M724.713,587.139l-6.045,5.275l3.134,7.382l75.088,45.24l3.539,0.989l1.356-0.136l94.43-19.124l3.135-1.541l28.795-25.016
	l142.808,75.072l29.186,35.286l4.758,2.457l44.269,3.274l2.849-0.4l0.782-0.359l0.882-0.538l0.593-0.461l0.656-0.714l0.506-0.685
	l0.456-0.863l0.349-0.894l-0.113-0.574l-0.126-1.06v-0.781l-0.236-2.052l-25.359-60.731l-16.629-104.626l-1.41-3.232
	L1007.655,408.41l-0.354-0.357l-0.918-0.689l-0.488-0.294l0.001,0L782.955,299.656l-1.671-0.547l-80.293-8.672l-125.247-79.253
	l-1.206-0.587l-2.129-0.439l-59.47,2.679l-5.82,3.815l0.531,6.92l49.002,70.214L378.071,433.734l0,0l-0.119,0.112h0L228.419,632.074
	l-0.161,0.262l-0.447,0.951l-0.256,0.787L194.26,779.439l-93.938,45.991l-1.242,0.973l-0.439,0.487l-0.587,0.788L47.51,910.093
	l0.531,7.895l5.293,2.512l2.34-0.413l67.748-24.694l62.856,5.677l51.759,28.78l20.736,58.458l6.535,4.549l6.408-4.735l27.045-83.833
	l0.323-2.087l-0.035-0.586l-0.261-1.36l-41.98-100.27l49.461-88.567l134.933-123.001l177.07-26.21l166.528,9.055l-21.754,12.408
	L724.713,587.139L724.713,587.139z M649.31,463.398l48.296-154.528l24.342,198.762l-82.677-12.114L649.31,463.398L649.31,463.398z
	 M244.449,921.973l-52.213-29.032l56.079-87.347l40.103,95.649L244.449,921.973L244.449,921.973z M196.09,798.904l-9.909,92.116
	l-62.022-5.602l-17.021-52.237l90-44.018L196.09,798.904L196.09,798.904z M191.951,884.131l10.401-96.687l42.996,13.518
	L191.951,884.131L191.951,884.131z M236.886,642.287l60.409,64.691l-49.915,89.381l-43.596-13.707l32.336-141.187L236.886,642.287
	L236.886,642.287z M238.865,637.081l188.668-49.736L300.531,703.118L238.865,637.081L238.865,637.081z M241.566,631.198
	L382.24,444.615l52.555,135.645L241.566,631.198L241.566,631.198z M567.509,297.699l119.843,1.7L402.852,426.996l163.69-128.256
	L567.509,297.699L567.509,297.699z M1005.031,421.018l39.145,48.588l-29.059,51.592l-2.062,0.465l-10.897,5.099L1005.031,421.018
	L1005.031,421.018z M1029.065,564.088l90.161,81.992l-43.463,20.046L1029.065,564.088L1029.065,564.088z M926.531,589.299
	l-105.116-23.262L995.154,536.8l3.958,15.218l-72.017,37.209L926.531,589.299L926.531,589.299z M1018.657,548.66l-10.375-1.116
	l-2.924-11.239l8.899-4.164l8.415,7.733L1018.657,548.66L1018.657,548.66z M1028.916,550.269l4.132-9.042l44.855,0.799
	L1028.916,550.269L1028.916,550.269z M997.09,529.163l-2.283,2.626l-177.204,29.819l182.498-143.225L997.09,529.163L997.09,529.163z
	 M861.988,520.419l-76.545-33.854l-2.886-176L997.46,414.1L861.988,520.419L861.988,520.419z M780.441,486.499l-53.52,20.607
	l-25.295-206.543l75.9,8.165L780.441,486.499L780.441,486.499z M396.724,468.159l-9.404-24.272l221.319,109.637l-169.14,25.037
	L396.724,468.159L396.724,468.159z M633.624,496.825l-17.184,54.982L388.523,438.903l306.112-137.291L633.624,496.825
	L633.624,496.825z M722.849,512.82l11.98,43.521l-87.939-54.676L722.849,512.82L722.849,512.82z M787.091,492.761l70.441,31.154
	l-47.931,37.617L787.091,492.761L787.091,492.761z M767.115,592.862l152.44,1.562l-26.133,22.703l-92.412,18.716l-65.755-39.617
	l29.775-2.694l2.027-0.636L767.115,592.862L767.115,592.862z M1001.615,556.353l2.162,0.764l17.456,1.875l47.482,103.75
	L933.33,591.634L1001.615,556.353L1001.615,556.353z M1106.982,703.15l-20.072-24.267l49.665,26.456L1106.982,703.15
	L1106.982,703.15z M1130.907,696.654l-50.765-27.042l41.363-19.079l22.214,52.945L1130.907,696.654L1130.907,696.654z
	 M1027.194,555.629l75.989-12.786l0.911,1.124l15.223,95.438L1027.194,555.629L1027.194,555.629z M1088.375,537.213l-55.274-0.986
	l-0.989-1.259l-12.528-11.513l27.969-49.657l51.239,63.6L1088.375,537.213L1088.375,537.213z M568.656,292.715l5.564-70.661
	l114.357,72.361L568.656,292.715L568.656,292.715z M569.345,220.27l-5.253,66.706l-44.953-64.412L569.345,220.27L569.345,220.27z
	 M103.451,838.005l15.734,48.288l-58.403,21.288L103.451,838.005L103.451,838.005z M287.277,907.309l-22.208,68.84l-17.738-50.007
	L287.277,907.309L287.277,907.309z M621.503,552.368l15.885-50.824l90.932,56.627L621.503,552.368L621.503,552.368z
	 M802.296,562.201l-61.592-3.356L727.84,512.11l53.572-20.627l23.411,71.525l-0.092-0.005L802.296,562.201L802.296,562.201z
	 M808.737,568.352l94.456,20.903l-127.466-1.306l28.774-16.413l1.819-1.806L808.737,568.352L808.737,568.352z"/>
</svg>
