<?xml version="1.0" encoding="utf-8"?>
<!-- Designed by Vexels.com - 2019 All Rights Reserved - https://vexels.com/terms-and-conditions/  -->
<svg version="1.1" id="Layer_1" xmlns="http://www.w3.org/2000/svg" xmlns:xlink="http://www.w3.org/1999/xlink" x="0px" y="0px"
	 viewBox="0 0 1200 1200" enable-background="new 0 0 1200 1200" xml:space="preserve">
<path d="M1152.392,607.86l-21.793-11.392l-7.749,0.389l-47.952,31.475l-55.939-101.566v-72.627l100.312-58.971l0.798-0.649
	l0.579-0.573l0.21-0.256l1.07-1.855l25.52-64.389l-3.393-9.509l-9.87,2.141l-34.985,47.357l-90.034,28.983l-24.641-74.892
	l-0.1-0.206l-1.239-1.849l-53.466-51.262l53.311-54.863l0.171-10.491l-10.446-0.807l-64.542,51.885l-253.25-103.747l-16.131-1.641
	l-125.048,22.969l-1.446,0.571L375.137,274.015L100.237,406.717l-1.923,1.586l-0.594,0.811l-0.624,1.143l-25.257,77.861
	L46.654,613.116l-0.121,2.236l15.93,170.419l7.615,6.932l0.361-0.008l7.291-7.72l-2.141-137.63l64.277,195.134l-20.313,82.726
	l-0.024,0.715l0.118,1.37l32.94,122.095l7.385,5.572h182.226l7.761-7.494v-94.636l20.03-55.525l85.768-183.845l-4.674,113.77
	l-0.124,0.338v175.988l-15.212,41.244l0.943,6.958l6.33,3.202h139.712l6.94-4.354l-1.106-8.128l-32.155-37.89l1.164-91.885
	l-0.244-2.008l-1.064-4.109l-0.124-0.101l-0.183-0.33v-0.001l0.09-0.032l-10.378-40.698l40.884-133.491L611.1,539.358l88.932,21.115
	l1.755,0.203l6.843-4.229l20.05-40.117l40.798-5.543l6.481-7.58v-67.909l43.759,21.319l0.559,0.205l5.69,0.066l0.754-0.303
	l45.141-22.922l105.12,244.589l0.293,0.494l0.976,1.17l0.524,0.498l1.083,0.717l90.202,38.315l4.307,0.069l1.567-0.625l63.289-34.07
	l0.859-0.587l0.704-0.58l0.648-0.737l0.584-0.805l0.431-0.861l0.372-0.964l0.186-0.884l0.037-1.021l-0.082-0.158V649.27
	l12.901-31.769L1152.392,607.86L1152.392,607.86z M765.959,501.022l-38.008,5.145l38.008-72.919V501.022L765.959,501.022z
	 M446.614,1044.959l13.031-35h87.917l29.771,35H446.614L446.614,1044.959z M56.674,614.772L81.542,491.1l5.149-16.205
	L64.959,613.806v0.008l0.18,0.145h0.004l-0.063,0.802l1.68,107.934L56.674,614.772L56.674,614.772z M283.67,365.896l-9.336,229.551
	L108.201,414.104l176.982-85.418L283.67,365.896L283.67,365.896z M1132.959,673.673l-49.315-30.345l49.315,6.641V673.673
	L1132.959,673.673z M1127.339,644.164l-48.075-6.474l47.936-31.546l18.483,9.661l-11.797,29.241L1127.339,644.164L1127.339,644.164z
	 M459.688,680.978l-96.565,206.919L313.55,753.861l0.698-2.844l-1.02-0.25L459.688,680.978L459.688,680.978z M132.327,926.539
	l70.925-29.297l22.444,94.932L132.327,926.539L132.327,926.539z M130.774,921.771l18.312-75.085l52.873,45.185v0.334
	L130.774,921.771L130.774,921.771z M693.366,241.046l-29.798,11.394l-0.77-0.978l-1.558-1.003l-8.749-90.215l120.681,50.286
	L693.366,241.046L693.366,241.046z M826.608,259.966l-39.796,4.62l-3.984-50.15l97.545,39.29L826.608,259.966L826.608,259.966z
	 M1110.39,387.167l-75.433,11.609l67.976-21.882L1110.39,387.167L1110.39,387.167z M464.42,1002.581l82.993-89.011l-1.156,91.234
	L464.42,1002.581L464.42,1002.581z M301.78,703.867l-21.739-98.215l178.585,70.292l-147.473,70.272L301.78,703.867L301.78,703.867z
	 M111.911,609.494l-36.327,2.293l30.115-193.011l165.511,180.664L111.911,609.494L111.911,609.494z M76.045,616.768l198.562-12.533
	l31.863,143.954l-1.555,0.537l-0.378-0.093l-0.06,0.244l-93.86,32.403l-4.027-1.157L76.765,618.953L76.045,616.768L76.045,616.768z
	 M261.928,809.102l-0.064-0.175l39.007-45.358l-23.485,95.681L261.928,809.102L261.928,809.102z M258.076,805.664l-3.245,0.481
	l-21.397,11.202l-19.875-31.792l87.908-30.348L258.076,805.664L258.076,805.664z M211.959,802.484l15.255,24.091l6.656,1.779
	l20.223-10.562l18.629,60.357l-16.647,67.889l-21.722,40.143l-22.394-93.92V802.484L211.959,802.484z M201.959,793.314v91.989
	l-50.801-43.254L201.959,793.314L201.959,793.314z M736.194,349.725l-1.337,4.514l-0.779,0.025l0.033,1.041l-70.242-80.63
	l0.091-17.175l112.034-42.767L736.194,349.725L736.194,349.725z M672.203,416.439l-2.066-0.562l-14.214,52.317l-92.921-84.784
	l88.329-51.84L672.203,416.439L672.203,416.439z M651.624,317.58l-12.261-30.893l16.668-6.865L651.624,317.58L651.624,317.58z
	 M645.386,315.419l4.456,11.227l-81.31,47.72l65.979-86.348L645.386,315.419L645.386,315.419z M567.022,393.848l87.035,79.414
	l-29.522,36.269L567.022,393.848L567.022,393.848z M725.725,353.276l-70.061-27.189l5.5-47.119L725.725,353.276L725.725,353.276z
	 M653.959,269.705l-16.853,7.02l-9.225-15.345l26.079-1.095V269.705L653.959,269.705z M630.558,284.958l-71.294,93.304
	l-37.521-75.49l94.521-41.835L630.558,284.958L630.558,284.958z M516.681,303.822l39.105,78.679l-164.4-97.534L516.681,303.822
	L516.681,303.822z M371.515,519.134l-63.564-79.174l68.392-146.812L371.515,519.134L371.515,519.134z M376.395,524.776
	l5.124-239.849l172.849,102.546L376.395,524.776L376.395,524.776z M676.745,413.971l-20.212-82.185l75.915,29.461l-17.921,40.309
	L676.745,413.971L676.745,413.971z M698.926,411.946l16.317-5.362l-0.628,1.687l28.689,10.685l-55.209-3.451L698.926,411.946
	L698.926,411.946z M767.33,417.233l-46.588-17.351l15.87-35.695l50.608-1.614L768.358,416.2L767.33,417.233L767.33,417.233z
	 M788.782,352.518l-48.661,1.552l38.467-129.853l3.441,43.348l0,0L788.782,352.518L788.782,352.518z M515.782,298.63l-129.11-19.429
	l126.844-95.42L515.782,298.63L515.782,298.63z M355.445,515.093l14.44,17.986l3.829,1.869l56.854,0.795l30.845,135.925
	l-180.611-71.09L355.445,515.093L355.445,515.093z M441.638,561.929l-5.926-26.114l157.68,2.205L466.307,670.641L441.638,561.929
	L441.638,561.929z M603.851,526.959l-219.68-2.111l175.286-135.046l61.551,123.836l-10.426,9.194L603.851,526.959L603.851,526.959z
	 M882.964,315.259l-8.926,104.059l-63.447-31.365L882.964,315.259L882.964,315.259z M1008.342,446.61l-118.397-22.408
	l111.998-15.332L1008.342,446.61L1008.342,446.61z M1011.835,407.393l90.485-13.926l-84.424,49.667L1011.835,407.393
	L1011.835,407.393z M931.093,413.522l-48.619,6.656l93.946-90.982l24.541,74.761L931.093,413.522L931.093,413.522z M879.317,416.275
	l9.138-106.531l34.148-34.3l51.343,49.188L879.317,416.275L879.317,416.275z M917.082,266.649L776.554,407.968l16.049-45.63
	l2.276-1.067l150.405-123.646L917.082,266.649L917.082,266.649z M891.963,267.4l0.728-8.749l6.603,2.644L891.963,267.4
	L891.963,267.4z M887.736,257.904l-1.163,13.985l-93.026,77.477l-6.339-79.793L887.736,257.904L887.736,257.904z M614.61,256.201
	l-93.845,41.535l-2.246-113.81l96.103,72.209L614.61,256.201L614.61,256.201z M223.497,1029.371l41.526-78.835l69.565,3.113
	L223.497,1029.371L223.497,1029.371z M270.158,945.761l88.158-46.18l-17.843,49.326L270.158,945.761L270.158,945.761z
	 M267.495,941.512l43.928-178.987l48.325,130.662L267.495,941.512L267.495,941.512z M535.019,865.035l-74.06,130.392l5.775-307.501
	L535.019,865.035L535.019,865.035z M471.369,987.796l65.526-115.92l9.174,35.803L471.369,987.796L471.369,987.796z M469.487,680.694
	l106.582,51.021l-38.56,125.862L469.487,680.694L469.487,680.694z M469.092,674.962l131.133-136.846l0.804,0.011L577.046,726.64
	L469.092,674.962L469.092,674.962z M677.424,427.197l40.173,76.002l-53.065-28.549L677.424,427.197L677.424,427.197z
	 M803.351,395.226l15.767,49.727l-43.906-21.463L803.351,395.226L803.351,395.226z M807.589,392.048l62.737,31.013l-45.567,23.14
	L807.589,392.048L807.589,392.048z M1008.959,451.835v71.73L889.6,429.244L1008.959,451.835L1008.959,451.835z M1012.708,536.011
	l56.044,101.987l-81.803,32.5L1012.708,536.011L1012.708,536.011z M1114.172,383.865l-7.182-9.894l23.952-32.421L1114.172,383.865
	L1114.172,383.865z M649.803,184.316l6.389,65.882l-36.819,1.541l-1.745,0.401l-95.749-71.943l125.362-22.297L649.803,184.316
	L649.803,184.316z M290.288,326.222l76.899-37.101l-69.613,149.435l0.633,5.242l54.058,67.334l-72.893,83.481L290.288,326.222
	L290.288,326.222z M81.207,632.438L202.5,783.26l-0.541,1.793v1.332l-53.234,51.257L81.207,632.438L81.207,632.438z M211.72,988.462
	l15.708,11.042l0.008,0.032l-23.078,45.423h-42.472L131.38,931.982L211.72,988.462L211.72,988.462z M215.574,1044.959l3.219-6.333
	l121.166-82.408v88.742H215.574L215.574,1044.959z M617.389,530.418l11.735-10.685l33.09-40.652l58.111,31.262l-19.887,39.793
	L617.389,530.418L617.389,530.418z M723.63,503.912l-44.286-83.783l0.043-0.159l80.082,5.006l4.443,1.655L723.63,503.912
	L723.63,503.912z M1008.816,529.747L982.687,666.17L880.771,428.563L1008.816,529.747L1008.816,529.747z M990.29,674.581
	l79.669-31.622v65.417L990.29,674.581L990.29,674.581z M1074.959,643.75l55.666,34.253l-55.666,29.966V643.75L1074.959,643.75z"/>
</svg>
