<?xml version="1.0" encoding="utf-8"?>
<!-- Designed by Vexels.com - 2019 All Rights Reserved - https://vexels.com/terms-and-conditions/  -->
<svg version="1.1" id="Layer_1" xmlns="http://www.w3.org/2000/svg" xmlns:xlink="http://www.w3.org/1999/xlink" x="0px" y="0px"
	 viewBox="0 0 1200 1200" enable-background="new 0 0 1200 1200" xml:space="preserve">
<path d="M1153.48,156.728l-5.882-0.936l-84.585,27.771l-0.927,0.427l-0.701,0.419l-0.819,0.656l-0.785,0.916l-0.67,1.147
	l-21.458,64.204l-36.582,5.471l-9.914-74.397l-4.908-5.578L906.531,155.6l-1.299-0.129l-0.589,0.014l-0.937,0.159l-0.867,0.241
	l-0.417,0.179l-0.809,0.453l-0.852,0.614l-0.47,0.473l-0.361,0.44l-0.611,0.896l-0.227,0.442l-0.313,0.892l-0.189,0.797l-0.06,0.451
	l-0.012,0.895l0.049,0.614l21.279,84.073l2.34,3.598l23.569,18.59l6.586,19.74l-7.518,62.741l0.177,0.78v39.273l-40.797,24.343
	l-32.396,26.964l-108.386,30.61l-0.001,0.001l-0.956,0.383l-0.881,0.497l-0.999,0.836L618.421,648.778l-0.468,0.804l-0.251,0.545
	l-0.317,1.068l-12.48,134.414l-96.863,130.238L51.568,985.823l-1.358,0.503l-0.535,0.291l-1.277,1.037l-0.483,0.539l-0.836,1.413
	l-0.268,0.673l-0.31,2.074l0.007,0.324l0.13,0.9l0.375,1.271l0.413,0.814l0.822,1.13l0.526,0.515l0.734,0.584l31.796,20.931
	l3.81,1.103l387.281-7.583l1.385-0.311l157.736-65.759l0.933-0.489l0.793-0.545l0.383-0.329l76.477-100.213l48.169,29.756
	l-11.296,108.949l0.016,1.136l0.109,0.801l0.181,0.651l20.456,41.131l0.946,1.408l0.262,0.277l1.054,0.876l0.599,0.348l0.907,0.402
	l1.381,0.383l0.835,0.104h155.255l42.372,16.227l0.295,0.268l2.104,0.506h81.168l6.482-5.217l-3.254-7.619l-26.933-14.876
	l88.373-2.771l6.251-5.005l-3.014-7.43l-40.148-24.254l-0.929-0.449l-1.37-0.401l-28.969,0.022l-19.606-15.741l-2.56-1.089
	l-1.094-0.17H845.307l3.646-56.042l70.941-156.27l24.919-24.054l-3.492,11.321l-0.124,0.626l-0.004,2.129l0.156,0.685l0.542,1.378
	l0.438,0.752l25.484,29.778l5.083,2.338l0.263-0.005l5.133-2.729l18.806-25.729l0.263-0.485h0l0.22-0.545l0.308-1.138l0.065-0.415
	l-0.015-1.628l-7.994-51.219l43.046-67.588l14.582,67.192l-37.4,35.053l-2.062,5.796l3.519,5.018l8.335,4.377l-5.096,26.064
	l1.395,5.713l5.171,2.625h25.121l0.6-0.206l0.102-0.099l1.453-0.398l0.78-0.335l0.835-0.49l0.641-0.502l0.703-0.721l0.712-1.007
	l27.382-73.656l0.212-1.127l0.042-0.641l-5.616-137.673l9.603-15.078l0.898-2.231l11.008-74.714l-0.061-1.263l-0.072-0.41h0
	l-0.458-1.392L1065,415.473v-16.931l8.694-8.055l0.692-0.766l0.627-0.92l0.408-0.921l0.31-1.045l14.542-78.008l-0.429-3.863
	l-10.142-23.639l74.873-76.133l1.241-1.771l0.25-0.604l0.127-1.581l-0.194-0.741V162.15L1153.48,156.728L1153.48,156.728z
	 M1080.067,309.016l-3.269-3.092l-1.169-0.817l-0.48-9.031l5.11,11.91L1080.067,309.016L1080.067,309.016z M1146,197.564
	l-68.077-8.512L1146,166.718V197.564L1146,197.564z M1055.846,419.556l21.952,35.142l-43.137-33.556l9.721-9.051l10.981,6.421
	L1055.846,419.556L1055.846,419.556z M1063.328,576.448l-9.149,98.108l-13.555-62.459L1063.328,576.448L1063.328,576.448z
	 M1056.48,696.631l0.216-0.23l11.117,1.897l-29.02,26.086l16.445-26.589L1056.48,696.631L1056.48,696.631z M1057.861,691.526
	l-0.17-0.785l8.401-90.082l3.797,92.919L1057.861,691.526L1057.861,691.526z M1066.608,552.683L994.552,665.82l50.876-138.698
	l28.58,13.942L1066.608,552.683L1066.608,552.683L1066.608,552.683z M835.952,952.795L818.3,890.696l20.699,15.223L835.952,952.795
	L835.952,952.795z M1019.502,985.468l-6.992,18.534l-13.698-20.354l-4.215-2.202l-176.38,2.334l19.849-11.19l1.906,0.328h184.249
	L1019.502,985.468L1019.502,985.468z M1049.652,989.918h14.787l-35.253,14.286l19.678-14.391L1049.652,989.918L1049.652,989.918z
	 M513.209,924.843l0.122-0.059l104.961,16.169l-141.055,58.825L513.209,924.843L513.209,924.843z M962.182,286.932l-2.166-6.493
	l7.28,9.429l0.041,0.042l0.039,0.057l12.343,14.396l-10.019,7.661l-7.39-22.148l0.092-0.767L962.182,286.932L962.182,286.932z
	 M1055.325,263.946l-9.012-6.971l17.441-52.32l5.125,69.775L1055.325,263.946L1055.325,263.946z M1068.812,280.698l0.378,1.486
	l0.244,0.57l1.19,22.39l-6.642,1.928l-15.858-42.375L1068.812,280.698L1068.812,280.698z M629.749,653.748l169.913-40.071
	l-98.532,93.012L629.749,653.748L629.749,653.748z M968.472,458.073l2.725,1.539l-55.023,74.138l-4.998-108.038L968.472,458.073
	L968.472,458.073z M995.498,314.757l1.943,6.876l-17.824,7.879l-4.162-9.299l10.574-8.086L995.498,314.757L995.498,314.757z
	 M996.485,304.653l-10.179-2.827l-2.258-0.097l-11.302-13.182l20.558-18.863L996.485,304.653L996.485,304.653z M974.805,340.444
	l2.283,0.474h0.019l27.163,46.674l-0.142,0.334l-0.372,3.349l-8.463,7.929l-40.043-46.158L974.805,340.444L974.805,340.444z
	 M704.109,714.908l-0.001-0.019l133.815,91.854l-0.573,1.382l-126.555,24.688L704.109,714.908L704.109,714.908z M841.573,803.183
	l-136.28-93.546l101.241-95.57l35.452,188.771L841.573,803.183L841.573,803.183z M831.542,823.111l-22.241,57.383l-38.446-10.604
	L831.542,823.111L831.542,823.111z M812.255,610.34l70.527-24.219l10.271,18.942l17.578,132.748L812.255,610.34L812.255,610.34z
	 M955.18,698.668l-31.012-122.125l54.712,113.447l-20.614,14.371L955.18,698.668L955.18,698.668z M875.969,552.576l35.689-1.976
	l1.615,3.35l32.204,126.823L875.969,552.576L875.969,552.576z M922.013,549.052l118.16-22.125l-55.655,151.729L922.013,549.052
	L922.013,549.052z M1038.765,522.105L920.89,544.175l58.347-78.617L1038.765,522.105L1038.765,522.105z M1033.479,414.933h0.51
	l-0.523,0.487L1033.479,414.933L1033.479,414.933z M1006.603,395.48l15.387,17.722l3.776,1.715h2.711l-0.062,2.332l-29.017-15.031
	L1006.603,395.48L1006.603,395.48z M1028.047,404.918l-13.481-15.579l5.582-11.421h23.318l4.5,14.433l-12.027,12.567H1028.047
	L1028.047,404.918z M994.308,405.216l31.741,16.446l-47.825,34.501l-22.799-57.354L994.308,405.216L994.308,405.216z
	 M699.116,715.176l6.606,116.51l-89.854-44.155L699.116,715.176L699.116,715.176z M799.071,985.984l-41.239-4.126l47.822-79.046
	L799.071,985.984L799.071,985.984z M980.842,991.637l-50.059,29.312l-3.126-0.031l-97.74-27.237L980.842,991.637L980.842,991.637z
	 M835.017,968.629l-25.681,14.402l6.537-82.586l19.112,67.233l-0.002,0.037L835.017,968.629L835.017,968.629z M812.523,618.872
	l97.853,126.794l-63.993,53.496L812.523,618.872L812.523,618.872z M1043.776,519.968l-60.003-56.997l100.514,6L1043.776,519.968
	L1043.776,519.968z M984.239,457.99l46.512-33.554l50.585,39.35L984.239,457.99L984.239,457.99z M1012.543,370.821l-5.628,11.47
	l-24.994-42.865l20.564-9.089l10.975,39.201L1012.543,370.821L1012.543,370.821z M1008.001,322.232l-2.507-8.874l52.689,1.467
	l-0.624,10.509L1008.001,322.232L1008.001,322.232z M1059.475,309.293l-0.391,0.555l-55.151-1.535l-2.29-2.151l-3.529-38.804
	l43.247-6.468L1059.475,309.293L1059.475,309.293z M911.721,169.497l56.975,37.875l-1.685,70.989L911.721,169.497L911.721,169.497z
	 M965.536,315.337l-0.825,5.351l7.087,15.834l-16.333,10.494l5.454-45.517L965.536,315.337L965.536,315.337z M955,360.179
	l33.898,39.041L955,393.634V360.179L955,360.179z M972.145,454.405l-57.887-32.695l36.275-21.673L972.145,454.405L972.145,454.405z
	 M906.642,435.893l4.82,104.206l-1.149,1.549l-0.855,4.065l-34.236,1.896l9.626-31.579l-2.391-0.729L906.642,435.893
	L906.642,435.893z M775.744,480.653l97.051-27.41l4.496,57.886L775.744,480.653L775.744,480.653z M769.247,483.924l105.299,31.601
	l-10.201,33.467l0.387,3.841l15.632,28.831l-70.643,24.259L769.247,483.924L769.247,483.924z M804.912,607.301l-173.057,40.812
	l132.862-161.965L804.912,607.301L804.912,607.301z M697.335,710.1l-81.995,71.266l11.437-123.597L697.335,710.1L697.335,710.1z
	 M626.139,937.103L517.18,920.318l92.587-124.49L626.139,937.103L626.139,937.103z M614.401,792.382l89.484,43.973l-73.25,96.113
	L614.401,792.382L614.401,792.382z M835.214,813.637l-0.182,0.47l-69.143,53.297l-49.51-30.585L835.214,813.637L835.214,813.637z
	 M773.418,875.785l34.067,9.396l-0.282,0.729l-0.322,1.412l-0.346,4.377l-48.271,79.788l10.07-97.105L773.418,875.785
	L773.418,875.785z M947.942,1016.661l41.83-24.452l-17.168,44.655l-35.738-13.728L947.942,1016.661L947.942,1016.661z
	 M994.175,994.689l15.521,23.08l-31.122,17.5L994.175,994.689L994.175,994.689z M818.438,884.591l24.289-62.088l-2.705,77.961
	L818.438,884.591L818.438,884.591z M848.138,810.728l53.984-45.128l-56.756,125.047L848.138,810.728L848.138,810.728z
	 M899.726,617.371l49.407,91.122l-33.106,31.978L899.726,617.371L899.726,617.371z M958.556,715.974l25.795,24.611l-32.438-3.124
	L958.556,715.974L958.556,715.974z M982.669,732.069l-22.485-21.453l0.124-1.583l20.046-13.975l6.385,40.894L982.669,732.069
	L982.669,732.069z M1047.928,522.779l36.467-45.906l-8.779,59.413L1047.928,522.779L1047.928,522.779z M1055,412.558l-6.862-4.025
	l6.862-6.409V412.558L1055,412.558z M1046.289,367.918h-28.061l-11.223-40.031l0.581-0.698l50.352,3.172l1.348,1.624
	L1046.289,367.918L1046.289,367.918z M1067.603,324.882l0.511-8.597l3.892-1.13l5.88,5.563l-1.456,7.812L1067.603,324.882
	L1067.603,324.882z M991.472,264.58l-19.559,17.945l1.814-76.412l-1.115-2.142l-51.293-34.098l60.218,16.047l10.292,77.239
	l0.212,0.897L991.472,264.58L991.472,264.58z M953.416,262.635l-24.156-19.09l-14.451-56.925L953.416,262.635L953.416,262.635z
	 M881.532,501.158l-3.875-49.889l25.555-21.275L881.532,501.158L881.532,501.158z M342.452,952.889l164.587-26.747l-36.617,76.279
	L85.689,990.843L342.452,952.889L342.452,952.889z M358.791,1004.595l-272.843,5.313L63.51,995.136L358.791,1004.595
	L358.791,1004.595z M758.86,986.986l39.974,4l-23.988,27.988L758.86,986.986L758.86,986.986z M802.939,993.879l0.977,0.096
	l8.191-0.059l96.891,27.002H779.85L802.939,993.879L802.939,993.879z M984.736,1037.918l28.355-15.944l28.957,15.944H984.736
	L984.736,1037.918z M1027.352,1010.273l50.34-20.355h0.572l29.802,17.924L1027.352,1010.273L1027.352,1010.273z M1016.704,1007.079
	l12.264-32.455l15.305,12.239L1016.704,1007.079L1016.704,1007.079z M985.754,745.744l-13.059,17.806l-17.808-20.779
	L985.754,745.744L985.754,745.744z M1041.249,710.905l-14.236,23.017l-6.616-3.474L1041.249,710.905L1041.249,710.905z
	 M1029.34,746.039l12.242,19.879h-16.128L1029.34,746.039L1029.34,746.039z M1066.162,706.505l-20.705,55.812l-14.746-23.945
	L1066.162,706.505L1066.162,706.505z M1057.364,388.96l-5.451-17.429l-0.955-1.714l12.885-35.669l10.715,4.429l-8.454,45.356
	l-1.113,1.036L1057.364,388.96L1057.364,388.96z M1067.895,192.775l75.575,9.449l-69.677,70.849L1067.895,192.775L1067.895,192.775z
	"/>
</svg>
