<?xml version="1.0" encoding="utf-8"?>
<!-- Designed by Vexels.com - 2019 All Rights Reserved - https://vexels.com/terms-and-conditions/  -->
<svg version="1.1" id="Layer_1" xmlns="http://www.w3.org/2000/svg" xmlns:xlink="http://www.w3.org/1999/xlink" x="0px" y="0px"
	 viewBox="0 0 1200 1200" enable-background="new 0 0 1200 1200" xml:space="preserve">
<path d="M343.675,583.234l-0.252,0.644l-0.352,1.285l-0.137,0.93l-4.708,90.271l-38,106.85v0.001l-55.578,176.231l-34.49-1.591
	l-5.955,2.381l-37.49,39.486l-1.83,7.293l5.289,5.357l52.025,14.919l22.151,26.336l5.875,2.734l4.62-1.549l30.867-23.296l32.21,15.7
	l6.738-0.01l4.136-5.325l9.552-45.892l133.741-197.05l13.463,104.192l4.334,5.995l61.049,28.858l-68.071,19.977l-5.461,6.531
	l3.939,7.558l33.104,18.087l0.54,0.202l1.084,0.276l47.332,3.298l-16.348,33.411l-54.907,7.353l-6.149,4.869l1.352,7.74
	l9.457,10.991l-25.716,32.516l-0.894,8.118l6.908,4.352h91.657l40.36,50.373l5.99,2.871l1.152-0.09l5.986-4.772l14.955-37.897
	l71.602,32.219l7.105-0.56l3.311-6.443v-56.801l75.981-109.317l158.715,47.705l0.121,0.021l2.325,0.689l7.395-1.667l22.599-20.546
	l36.351-23.662l3.474-6.852l-4.227-6.44l-71.156-35.593l86.804-140.58l0.147-0.308l0.395-1.209l0.117-0.507l-0.042-1.336l0.103-0.78
	l-29.154-134.286l-4.09-5.229l-6.647-0.079l-21.97,10.238l-56.952-127.156l-0.522-0.841L776.535,366.397l-12.085-61.132h42.092
	l5.675-2.613l22.045-24.274l1.346-8.407l-7.019-4.706h-12.48l50.371-114.05l-3.462-9.833l-43.977-23.009l-26.824-58.585
	l-9.183-4.153L686.69,84.627l-0.766,0.391l-1.021,0.688l-0.864,0.831l-0.593,0.74l-0.516,0.793l-32.329,61.23l-183.088-3.511
	l-92.469-97.47l0.001-0.001l-1.141-0.78l-1.166-0.562l-0.938-0.258l-1.186-0.183l-0.845-0.031l-1.322,0.189l-1.322,0.407
	l-0.716,0.334L275.423,108.8l-3.372,6.666l5.127,128.61l0.241,1.483l0.262,0.924l1.379,2.302l0.659,0.64l1.218,0.909l39.51,18.871
	l-17.878,31.973l0.764,8.603l5.936,2.812l2.348-0.368l33.19-10.67l-12.06,35.211l1.611,7.686l7.532,2.242l41.959-10.637
	l35.254,123.348L343.675,583.234L343.675,583.234z M716.731,96.143l-17.77-4.654l84.91-25.479l24.816,54.214L716.731,96.143
	L716.731,96.143z M979.982,991.11l-21.674,19.707l-15.009-76.69l70.209,35.118L979.982,991.11L979.982,991.11z M328.614,992.828
	l-9.126,43.836l-29.907-14.575l38.978-29.754L328.614,992.828L328.614,992.828z M225.162,1017.561l-48.225-13.831l33.857-35.661
	l35.616,1.641L225.162,1017.561L225.162,1017.561z M462.007,160.5l6.985,135.628l-53.202-72.926L462.007,160.5L462.007,160.5z
	 M576.96,158.073l27.397,0.505l31.193,94.158l-37.56,52.743l-0.458-0.214h-30.531l-29.432-68.334L576.96,158.073L576.96,158.073z
	 M609.659,158.679l42.561,0.827l-14.644,83.439L609.659,158.679L609.659,158.679z M714.279,436.028l-2.425,3.088l42.675-131.789
	l12.214,61.886L714.279,436.028L714.279,436.028z M1022.297,791.461l-83.847,135.686l-116.918,3.849L1022.297,791.461
	L1022.297,791.461z M556.982,1030.198L671.336,759.56l37.674,316.704L556.982,1030.198L556.982,1030.198z M392.267,324.495
	l21.64-95.363l53.495,73.774l-10.614,26.003L392.267,324.495L392.267,324.495z M534.65,242.976l27.737,64.572l-35.986,33.031
	l-0.647,0.783l-27.53-2.646v-18.051l-0.862-2.76L534.65,242.976L534.65,242.976z M641.143,251.545l15.473-88.164l91.691,128.762
	L641.143,251.545L641.143,251.545z M659.44,158.728l149.956-31.395l-55.095,164.607L659.44,158.728L659.44,158.728z M858.48,725.969
	l4.963-12.706l162.148,69.819L816.866,928.15L858.48,725.969L858.48,725.969z M525.207,346.335l16.782,48.639l-12.452,20.209
	l-50.501-64.554l15.687-5.146l2.502-1.836L525.207,346.335L525.207,346.335z M651.53,296.246l1.901,5.165l-12.758,20.026
	l-38.157-11.88l-0.442-1.009l35.542-50.081L651.53,296.246L651.53,296.246z M577.939,940.163l23.757-37.915l-23.461,56.908
	L577.939,940.163L577.939,940.163z M488.224,323.184v13.927l-13.187,4.316l-8.25-10.52l7.4-18.096L488.224,323.184L488.224,323.184z
	 M623.436,358.37l-18.33-42.769l33.526,10.438l0.792,2.791l11.758,18.226L623.436,358.37L623.436,358.37z M649.561,326.095
	l8.756-13.803l14.559,13.166l0.24,11.634l-13.703,4.273L649.561,326.095L649.561,326.095z M573.018,423.699l-11.065-1.529
	l-26.375-76.619l32.798-30.285h25.861l19.891,46.592L573.018,423.699L573.018,423.699z M623.951,365.329l0.784-2.09l29.48-12.022
	l3.057,1.054l1.488-0.227l18.223-5.683l24.385,100.357l-0.051,0.028l-78.282-42.947l-17.059-11.51L623.951,365.329L623.951,365.329z
	 M623.045,409.507l73.089,40.098l-116.723,64.392L623.045,409.507L623.045,409.507z M796.693,690.408L647.517,652.76l-0.059-0.181
	l-0.247,0.08L781.084,494.13l74.464,211.131L796.693,690.408L796.693,690.408z M666.756,744.432l-36.91,89.532l13.747-160.899
	L666.756,744.432L666.756,744.432z M676.251,741.296l-26.911-82.918l198.563,50.111L676.251,741.296L676.251,741.296z
	 M648.708,643.136l57.971-187.908l71.33,34.794L648.708,643.136L648.708,643.136z M681.641,344.355l1.55-3.712l-0.341-16.486
	l68.363-22.823l-45.719,141.19L681.641,344.355L681.641,344.355z M528.936,422.6l24.69,33.056l-101.872-2.191L528.936,422.6
	L528.936,422.6z M559.713,455.449L532.81,419.43l11.291-18.338l9.399,27.241l4.042,3.322l17.897,2.426l4.159-2.227l23.604-35.404
	l15.484,10.448l-14.438,38.063L559.713,455.449L559.713,455.449z M602.457,450.453l-29.384,65.341l-11.441-55.664L602.457,450.453
	L602.457,450.453z M700.379,458.683l-60.104,194.861l-0.153,1.417l-2.175,0.706l1.674,5.157l-15.488,181.271l-48.835-314.408
	L700.379,458.683L700.379,458.683z M713.263,1069.684L675.245,750.08l1.458-3.537l0.081-0.259l176.178-33.672L713.263,1069.684
	L713.263,1069.684z M726.666,289.291l21.001,7.956l-66.522,22.208l-20.52-18.557l-2.502-1.216l-15.561-42.251L726.666,289.291
	L726.666,289.291z M472.255,352.168l0.979,0.103l0.693-0.055l51.841,66.266l-93.919,37.557L472.255,352.168L472.255,352.168z
	 M439.887,458.21l116.762,2.511l11.465,55.775l-131.662-56.913L439.887,458.21L439.887,458.21z M434.682,469.669l135.66,58.697
	l49.511,318.755L434.682,469.669L434.682,469.669z M495.027,897.034l-14.795-114.458l135.244,77.931L495.027,897.034
	L495.027,897.034z M584.581,875.101l32.35-9.811l-3.886,9.428l-39.344,62.791l-76.157-36.013L584.581,875.101L584.581,875.101z
	 M813.921,937.057l120.808,67.07l-138.441-41.635L813.921,937.057L813.921,937.057z M952.743,1008.41l-130.471-72.435l115.549-3.803
	L952.743,1008.41L952.743,1008.41z M863.329,704.546l49.85-168.576l56.127,125.365L863.329,704.546L863.329,704.546z
	 M909.603,530.432l-50.355,170.284l-73.27-207.744L909.603,530.432L909.603,530.432z M889.162,519.014l-105.233-31.887l-0.642-1.826
	L772.65,377.174l132.147,146.577L889.162,519.014L889.162,519.014z M778.188,484.546l-69.159-33.735l58.51-74.515L778.188,484.546
	L778.188,484.546z M759.395,292.49l50.152-149.838l-7.621,128.907L759.395,292.49L759.395,292.49z M567.902,165.039l-74.515,149.569
	l-18.462-13.664l-0.698-0.424l-7.446-144.57l104.646,2.018L567.902,165.039L567.902,165.039z M413.82,217.448L374.844,62.826
	l86.047,90.761L413.82,217.448L413.82,217.448z M409.784,221.893L334.53,261.21l35.937-195.297L409.784,221.893L409.784,221.893z
	 M363.881,74.063l-34.607,188.078l-41.148-19.595L363.881,74.063L363.881,74.063z M456.568,333.905l0.542,0.883l11.051,14.115
	l-40.386,103.82l-35.211-123.196L456.568,333.905L456.568,333.905z M427.674,466.737l188.285,383.801L353.751,586.12l73.021-119.753
	L427.674,466.737L427.674,466.737z M609.887,851.516L478.49,775.802L348.397,676.69l4.404-84.428L609.887,851.516L609.887,851.516z
	 M308.643,818.16l19.009,166.197l-74.25-18.838l52.906-167.778L308.643,818.16L308.643,818.16z M310.245,788.158l161.986-7.539
	L332.868,985.953L310.245,788.158L310.245,788.158z M311.06,783.115l35.979-101.174l123.082,93.771L311.06,783.115L311.06,783.115z
	 M251.651,970.233l73.269,18.589l-41.594,31.751l-0.001,0.001l-32.717,24.69l-21.124-25.113L251.651,970.233L251.651,970.233z
	 M564.373,944.647l-47.169,35.468l-25.691-14.087L564.373,944.647L564.373,944.647z M524.286,981.045l48.717-36.631l0.413,26.431
	l-5.436,13.186L524.286,981.045L524.286,981.045z M538.362,1038.753l-31.01,16.188l-9.284-10.791L538.362,1038.753L538.362,1038.753
	z M508.38,1060.148l42.301-22.028l18.302,55.146H482.27L508.38,1060.148L508.38,1060.148z M573.753,1091.557l-18.858-56.767
	l148.391,44.963l-68.901,20.678l-16.73-36.487l-1.627-1.373l-0.646-0.085l-0.423,0.039l-0.477,0.136l-0.117,0.047l-0.434,0.241
	L573.753,1091.557L573.753,1091.557z M614.369,1068.777l15.934,34.748l-15.933,40.376l-38.316-47.843L614.369,1068.777
	L614.369,1068.777z M639.933,1103.92l69.291-20.795v51.975L639.933,1103.92L639.933,1103.92z M847.686,753.609L810.81,932.767
	l-20.595,29.703l-0.011,0.021l-55.174,79.586L847.686,753.609L847.686,753.609z M865.925,708.889l133.976-56.157l27.338,125.617
	L865.925,708.889L865.925,708.889z M765.859,295.265l39.06-20h18.015l-17.497,20H765.859L765.859,295.265z M807.652,259.452
	l7.771-131.462l40.802,21.372L807.652,259.452L807.652,259.452z M659.88,153.514l31.123-58.94l111.248,29.135L659.88,153.514
	L659.88,153.514z M364.202,61.159L286.917,233.04l-4.646-116.587L364.202,61.159L364.202,61.159z M332.961,267.671l69.615-36.372
	l-47.497,56.266l-40.53,13.031L332.961,267.671L332.961,267.671z M359.071,291.301l48.883-58.535l-20.871,91.977l-43.219,10.956
	L359.071,291.301L359.071,291.301z M371.344,52.014l-0.004-0.001l0.078-0.136L371.344,52.014L371.344,52.014z"/>
</svg>
