<?xml version="1.0" encoding="utf-8"?>
<!-- Designed by Vexels.com - 2019 All Rights Reserved - https://vexels.com/terms-and-conditions/  -->
<svg version="1.1" id="Layer_1" xmlns="http://www.w3.org/2000/svg" xmlns:xlink="http://www.w3.org/1999/xlink" x="0px" y="0px"
	 viewBox="0 0 1200 1200" enable-background="new 0 0 1200 1200" xml:space="preserve">
<path d="M1104.812,518.077l-0.049-1.224l-0.203-0.974l-0.31-0.938l-0.823-1.491l-46.478-55.891l-1.293-1.181l-0.887-0.555
	l-1.435-0.613l-128.577-37.382l-1.829-0.186l-112.13,3.007l-43.589-79.981L709.215,96.138l-0.252-0.622l-0.665-1.119l-0.331-0.445
	l-0.449-0.479l-0.854-0.733l-0.686-0.473h0.001l-77.178-44.803l-1.217-0.517l-1.4-0.382l-1.248-0.054l-1.455,0.126L548.55,63.036
	l-1.137,0.385l-1.084,0.554l-0.907,0.604l-0.771,0.676l-20.063,21.623l-15.277-6.929l-6.237,0.02l-30.583,14.204l-4.242,5.676
	l-2.302,15.966l0.181,1.793l0.311,1.07l0.795,1.483l0.461,0.646l0.657,0.671l44.868,34.894l26.58,51.118l-12.313,116.441
	l-25.521,22.944L382.74,432.877H279.603l-2.9,0.746l-0.043,0.098l-146.72,62.226l-6.276,4.374l-0.637,3.116l-25.501,61.613
	l0.56,6.812l8.872,14.208l6.323,3.505l2.192-0.329l112.902-34.709l1.483-0.105l77.5-13.433l57.615,19.779l3.662,0.308l45.954-7.662
	l-20.101,59.095l-0.385,2.37l17.035,117.415l-7.279,79.073l11.707,122.263l0.462,1.372l0.188,0.43l64.091,96.901l14.176,46.66
	l-31.347,63.23l2.304,9.355l4.374,1.417l5.229-2.142l38.393-37.784l24.087,39.823l6.379,3.595l1.686-0.192l5.74-6.595l3.842-42.672
	l43.579,26.954l3.916,1.112l5.883-2.875l-0.702-9.947l-45.464-43.878l7.964-5.034l91.791-31.101l7.991,15.645l1.549,14.334
	l-25.26,33.641l0.574,9.614l5.396,2.31l4.188-1.288l22.618-15.368l26.895,31.35l5.656,2.599l1.192-0.096l5.712-4.544l9.812-24.045
	l44.331,17.264l9.147-3.159l-1.658-9.516l-40.999-34.091l2.151-25.103l76.94-136.075l0.806-2.18l15.575-114.109l-4.852-88.876
	l14.582-109.157l-3.43-49.122l25.457-0.639l209.07,16.342l0.566-0.125h22.438l5.344-2.111l2.11-5.34L1104.812,518.077
	L1104.812,518.077z M727.505,1095.319l-0.724-0.203l4.698-10.901l28.617,23.797L727.505,1095.319L727.505,1095.319z
	 M708.271,1082.434l-0.024,0.003l-26.431,5.75l-0.776-11.806l0.791-3.242l-1.385-12.819l42.139,19.001L708.271,1082.434
	L708.271,1082.434z M553.546,1094.278l-2.265-0.728l-0.83-0.514l0.938-10.435l29.833,28.794L553.546,1094.278L553.546,1094.278z
	 M539.426,1072.519l-35.394,3.513l-11.921-39.239L539.426,1072.519L539.426,1072.519z M225.353,543.357l-88.521-39.429
	l136.566-57.884L225.353,543.357L225.353,543.357z M278.147,447.716l25.599,83.632l-73.149,12.68L278.147,447.716L278.147,447.716z
	 M132.233,507.354l87.69,39.059l-105.659,32.482l-7.002-11.213L132.233,507.354L132.233,507.354z M1091.993,521.03l-18.12,36.62
	l-68.553-22.997L1091.993,521.03L1091.993,521.03z M899.804,524.831l-0.055,0.029l-0.045,0.017l-28.678,13.957l52.445-110.741
	l119.419,34.74L899.804,524.831L899.804,524.831z M829.211,487.846l32.558,53.931l-21.969,0.551L829.211,487.846L829.211,487.846z
	 M700.943,1050.549l-22.114,2.417l-8.095-15.847l47.86,11.501L700.943,1050.549L700.943,1050.549z M730.392,1052.36l-2.063,24.065
	l-42.556-19.188L730.392,1052.36L730.392,1052.36z M425.29,931.146l-10.954-114.765l102.092,54.387l23.051,141.376l-113.856-80.496
	L425.29,931.146L425.29,931.146z M461.481,420.357l-3.295,9.331l-45.144,77.819l-25.623-65.356l109.397-79.058l-33.578,57.885
	L461.481,420.357L461.481,420.357z M533.947,91.493l15.152-16.33l20.979,34.965L533.947,91.493L533.947,91.493z M529.497,119.877
	l38.13,1.307l-9.441,10.469l-40.209,15.711l-36.873-28.614l1.26-0.122L529.497,119.877L529.497,119.877z M562.911,140.63
	l1.884-1.295l15.383-16.917l0.588-0.804l17.6-0.048l-51.094,78.616l-23.113-44.451L562.911,140.63L562.911,140.63z M690.152,95.175
	l4.531,2.631l-57.742,14.718l-16.398-13.459l-0.125,0.153l5.621-41.258L690.152,95.175L690.152,95.175z M833.441,599.85
	L638.399,718.282l70.196-125.506l121.188-44.248L833.441,599.85L833.441,599.85z M544.078,1009.263L521.75,872.352l184.713,39.893
	l-161.696,101.274L544.078,1009.263L544.078,1009.263z M823.728,798.891L713.866,906.748l-76.712-179.994l181.905-13.792
	L823.728,798.891L823.728,798.891z M645.017,614.507l16.46-185.278l102.995,53.438L636.389,711.633L645.017,614.507L645.017,614.507
	z M547.118,504.877h-0.002l-0.892,0.301v-0.116L406.775,607.269l19.915-58.457l0,0l43.878-124.2l181.259,3.059L547.118,504.877
	L547.118,504.877z M537.174,327.161l0.056-0.279l0.159-1.503l48.327-102.134L714.644,294l-56.33,127.353L537.174,327.161
	L537.174,327.161z M756.2,344.058l-90.442,72.827l52.733-119.221l37.614,46.224L756.2,344.058L756.2,344.058z M669.979,428.006
	l130.707,2.624l-33.587,47.766L669.979,428.006L669.979,428.006z M827.478,544.047l-115.14,42.04l56.149-100.356L827.478,544.047
	L827.478,544.047z M758.655,348.501l42.51,77.138l-134.939-2.71L758.655,348.501L758.655,348.501z M715.901,288.986l-126.268-69.295
	l82.221-48.787l56.383,32.889L715.901,288.986L715.901,288.986z M638.193,117.365l58.765-14.979l-25.707,60.612l-33.285-45.002
	L638.193,117.365L638.193,117.365z M620.815,135.145l2.979-1.521l10.882-11.667l33.513,45.31l-80.075,47.515L620.815,135.145
	L620.815,135.145z M828.447,537.973l-57.298-56.644l33.586-47.765l12.961,35.211l-2.292,0.445L828.447,537.973L828.447,537.973z
	 M825.505,468.779l91.549-38.817l-51.411,108.557l-39.205-64.942L825.505,468.779L825.505,468.779z M821.63,464.992l-12.622-34.29
	l99.805-2.677L821.63,464.992L821.63,464.992z M720.491,292.185l10.857-74.985l23.438,117.131L720.491,292.185L720.491,292.185z
	 M675.004,166.954l25.77-60.759l26.062,90.991L675.004,166.954L675.004,166.954z M617.922,109.836l8.163,6.669l-6.741,7.228
	l-8.754-5.692L617.922,109.836L617.922,109.836z M616.072,133.533l-33.037,80.451l-31.852-10.646l51.167-78.729L616.072,133.533
	L616.072,133.533z M580.04,223.527l-41.057,86.765l10.265-97.058L580.04,223.527L580.04,223.527z M651.854,422.663l-181.396-3.069
	L506.8,355.88l1.672-1.246l25.823-23.378L651.854,422.663L651.854,422.663z M549.347,508.98L549.347,508.98l106.99-78.406
	L640.243,611.75l-232.021,0.661L549.347,508.98L549.347,508.98z M639.635,618.584l-9.067,102.067l-201.88,8.495L639.635,618.584
	L639.635,618.584z M420.581,727.751l-16.09-110.329l227.831-0.649L420.581,727.751L420.581,727.751z M632.222,727.937
	l76.587,179.699l-185.714-40.108L632.222,727.937L632.222,727.937z M508.306,1022.089l-20.096,4.076l-54.964-83.005l103.484,73.164
	L508.306,1022.089L508.306,1022.089z M549.572,1074.092l-57.513-43.605l49.559-10.051l21.298,45.221L549.572,1074.092
	L549.572,1074.092z M560.71,1049.067l-14.474-30.569l161.652-101.246l-44.938,113.892l-95.521,32.364L560.71,1049.067
	L560.71,1049.067z M718.941,969.171l11.222,77.087l-61.906-14.877l14.124-35.798l0.003-0.006l29.5-74.823L718.941,969.171
	L718.941,969.171z M724.09,969.832l79.722-50.336l-69.227,122.435L724.09,969.832L724.09,969.832z M808.561,910.584l-85.26,53.832
	l-7.642-52.423l107.152-105.196L808.561,910.584L808.561,910.584z M643.081,721.289L832.87,606.046l-13.663,101.89L643.081,721.289
	L643.081,721.289z M1000.672,530.322l49.644-63.962l41.321,49.664L1000.672,530.322L1000.672,530.322z M1042.294,468.541
	l-48.621,62.644l-82.496-5.832L1042.294,468.541L1042.294,468.541z M615.138,100.919l-1.479-1.321l-14.409,16.124l-0.606,0.844
	l-17.805,0.049l-2.069-2.004l-0.247-0.128l-25.335-42.224l67.881-14.857L615.138,100.919L615.138,100.919z M524.336,98.152
	l35.433,17.909l-83.444-2.439l1.616-10.955l27.84-12.93L524.336,98.152L524.336,98.152z M409.179,511.35l-95.488,18.154
	l69.684-83.972L409.179,511.35L409.179,511.35z M449.19,455.16l-26.856,76.047l-6.96-17.753L449.19,455.16L449.19,455.16z
	 M420.981,734.477l206.578-8.693L517.992,865.937l-104.05-55.431L420.981,734.477L420.981,734.477z M510.767,1100.752
	l-31.054,30.563l22.314-45.011L510.767,1100.752L510.767,1100.752z M676.436,1082.567l0.487,7.417l-12.365,8.402L676.436,1082.567
	L676.436,1082.567z M901.289,529.666l93.054,6.579l60.254,20.218l-179.31-14.142L901.289,529.666L901.289,529.666z
	 M1079.193,557.877l14.949-30.212l0.869,30.212H1079.193L1079.193,557.877z M308.083,528.119l-26.09-85.242h96.829L308.083,528.119
	L308.083,528.119z M317.423,533.883l93.612-17.796l8.753,22.326l-1.458,4.129l-50.944,8.493L317.423,533.883L317.423,533.883z
	 M518.718,1102.491l-1.954-1.833l-0.379-1.182l-11.673-18.489l40.51-4.02l1.485,1.291l-1.483,15.866v0.002l-4.048,45.582
	L518.718,1102.491L518.718,1102.491z M685.033,1092.605l24.272-5.729h-0.081v0.223l17.02-3.581l-5.233,12.249l-0.013,0.084
	l-10.686,26.213L685.033,1092.605L685.033,1092.605z"/>
</svg>
