<?xml version="1.0" encoding="utf-8"?>
<!-- Designed by Vexels.com - 2019 All Rights Reserved - https://vexels.com/terms-and-conditions/  -->
<svg version="1.1" id="Layer_1" xmlns="http://www.w3.org/2000/svg" xmlns:xlink="http://www.w3.org/1999/xlink" x="0px" y="0px"
	 viewBox="0 0 1200 1200" enable-background="new 0 0 1200 1200" xml:space="preserve">
<path d="M49.289,98.372l48.568,37.438l121.126,213.438l85.561,106.354L237.01,563.824l-0.138,0.295l-0.492,1.402l-11.134,81.299
	l-20.251,71.001l-0.105,1.272l0.043,0.916l0.077,0.446l0.234,0.861l0.34,0.9l31.6,65.097l1.485,1.771l0.542,0.413l1.534,0.824
	l0.83,0.289l85.263,15.233l59.664,125.359l-21.304,51.593l-70.558,46.383l-3.164,5.065l1.78,5.701l33.704,37.369l1.049,0.762
	l0.92,0.501l2.794,0.575l125.337-8.981l1.025-0.168l1.215-0.368l0.721-0.35l0.891-0.547l0.932-0.844l53.198-57.42l-5.977,45.438
	l-42.645,46.205l0.057,9.771l31.313,33.15l1.235,0.994l1.025,0.598l2.936,0.633l110.831-0.002l1.279-0.188l0.727-0.196l0.62-0.263
	l1.045-0.573l0.613-0.459l0.915-0.945l0.628-0.912l62.525-132.657l159.275,20.863l-26.203,46.684l-0.588,5.662l3.739,4.307
	l68.801,32.85l0.171,0.055l2.338,0.412l1.525-0.166l103.76-22.682l124.083-53.655l1.371-0.788l0.784-0.688l0.789-0.919l0.423-0.661
	l0.507-1.123l0.207-0.665l0.029-1.553l-0.177-0.177v-0.08l0.178-0.209l-3.571-87.427l36.859-241.383l0.013-0.46h0.005l-0.074-0.874
	l-0.194-0.999l-0.214-0.714l-0.282-0.697l-114.341-223.063l-0.383-0.599l-0.588-0.719l-0.911-0.821l-0.557-0.4l-0.914-0.463
	l-0.92-0.342l-237.92-54.048l-1.505-0.166l-1.919,0.244l-201.849,67.121l-19.921-25.614l49.419-100.615l79.251-126.811l0.563-1.412
	l0.146-0.644l0.106-1.262L688.732,62.047l-7.132-6.782h-49.717l-0.783,0.401l-1.064,0.246l-1.538,0.653l-1.206,0.828
	L469.759,205.693l-0.576,0.841l-0.297,0.589l-0.414,1.112l-0.144,0.561L468,208.81v0.004l0.155,0.276l-39.22,204.175h-26.386
	l-10.31-89.508l-0.26-1.25l-0.429-1.194l-0.468-0.857l-0.694-0.956l-154.69-167.595l-2.822-1.882L56.08,85.967l-8.701,3.297
	L49.289,98.372L49.289,98.372z M228.814,159.186l138.135,149.651l-133.692-91.726l-0.001-0.001L105.83,129.678l-1.07-1.172
	l-34.924-26.92L228.814,159.186L228.814,159.186z M475.567,1106.952l38.711-41.943l-12.783,69.393L475.567,1106.952
	L475.567,1106.952z M572.499,1102.857l-53.665-44.545l8.044-61.155l77.259,131.963L572.499,1102.857L572.499,1102.857z
	 M606.136,1137.265H506.05l13.274-72.059L606.136,1137.265L606.136,1137.265z M371.466,992.522l78.567,68.127l-114.089,8.192
	L371.466,992.522L371.466,992.522z M264.279,571.601l134.987,12.4l3.954,38.709l-167.874,24.064l10.48-76.869L264.279,571.601
	L264.279,571.601z M227.498,343.646l6.486-117.909l153.689,187.767L227.498,343.646L227.498,343.646z M389.842,419.905
	l-75.441,31.996L233.91,351.898L389.842,419.905L389.842,419.905z M440.144,551.612l-38.857,26.172l-1.279,1.263l-152.027-13.964
	l66.296-106.188L440.144,551.612L440.144,551.612z M527.065,984.22l-26.343-248.732l247.022,64.859l-0.529,1.596L527.065,984.22
	L527.065,984.22z M412.66,616.723l-3.301-32.318l33.449-22.529l5.304,36.802L412.66,616.723L412.66,616.723z M452.818,607.503
	l0.125-0.064l41.787,123.279l-156.886,63.549L452.818,607.503L452.818,607.503z M938.628,966.917L763.325,804.535l135.664,36.953
	L938.628,966.917L938.628,966.917z M747.308,795.063l-244.841-64.287L602.95,619.622L747.308,795.063L747.308,795.063z
	 M817.71,861.727l123.553,114.447l-88.164,44.313l-91.893-211.1L817.71,861.727L817.71,861.727z M908.868,839.561l231.785-122.901
	L950.326,970.746L908.868,839.561L908.868,839.561z M407.146,629.318l1.281,0.17l2.268-0.544l33.571-17.089L332.072,794.104
	l-26.508-59.313l0.769-4.223L407.146,629.318L407.146,629.318z M290.845,735.503l-23.933,24.066l-40.005-32.471L290.845,735.503
	L290.845,735.503z M301.814,738.655l24.719,55.311l-52.747-27.126L301.814,738.655L301.814,738.655z M941.085,987.456
	l-51.361,120.836l-32.697-78.585L941.085,987.456L941.085,987.456z M901.277,836.928l-142.409-38.79l0.066-0.277l269.255-299.878
	L901.277,836.928L901.277,836.928z M1027.372,491.408L757.206,792.301l-5.019-0.9l1.529,3.581L607.36,617.112L1027.372,491.408
	L1027.372,491.408z M597.847,617.81l-98.992,109.504l-41.531-122.523l0.315-0.382L597.847,617.81L597.847,617.81z M560.303,468.694
	l-111.578,80L437.68,423.643L560.303,468.694L560.303,468.694z M401.378,628.025l-98.582,99.009l-86.812-11.456l18.184-63.583
	L401.378,628.025L401.378,628.025z M261.072,767.709l-16.511,11.981l-20.29-41.852L261.072,767.709L261.072,767.709z
	 M256.483,777.217l8.768-6.362l2.018,0.445l2.702-0.799l44.779,23.029l-64.81-11.565L256.483,777.217L256.483,777.217z
	 M391.986,777.731l100.517-40.716l-97.874,187.997l-59.195-124.374L391.986,777.731L391.986,777.731z M496.242,740.661
	l25.885,244.412l-124.349-55.281L496.242,740.661L496.242,740.661z M528.3,989.688l215.822-178.694l-69.543,192.713l-61.556,130.696
	L528.3,989.688L528.3,989.688z M721.874,902.981l33.591-94.253l93.16,214.009l-0.079,0.04l-162.508-21.287L721.874,902.981
	L721.874,902.981z M977.407,1060.292l11.873,29.813l-95.225,20.776l53.434-125.71L977.407,1060.292L977.407,1060.292z
	 M1108.931,1038.889l-114.865,49.719l-42.132-105.79L1108.931,1038.889L1108.931,1038.889z M957.428,979.471l152.37-25.76
	l3.41,81.396L957.428,979.471L957.428,979.471z M953.316,975.095l191.627-255.822l-34.98,229.339L953.316,975.095L953.316,975.095z
	 M907.472,834.641l127.893-341.566L1145.7,708.324L907.472,834.641L907.472,834.641z M612.445,610.37l185.62-174.843l226.613,51.467
	L612.445,610.37L612.445,610.37z M589.326,505.703l10.917,107.314l-139.87-13.37L589.326,505.703L589.326,505.703z M451.601,552.784
	l113.221-81.177l22.718,29.211L457.74,595.378L451.601,552.784L451.601,552.784z M479.037,213.114l211.684,25.105L538.128,381.933
	L479.037,213.114L479.037,213.114z M682.955,252.403l-63.417,101.424l-71.979,26.094L682.955,252.403L682.955,252.403z
	 M692.565,233.403L481.41,208.36l149.57-140.729L692.565,233.403L692.565,233.403z M534.679,387.22l26.807,76.582l-123.461-45.359
	l38.251-198.078L534.679,387.22L534.679,387.22z M443.643,548.224l-125.318-92.435l78.188-32.978l1.579,0.454h34.492
	L443.643,548.224L443.643,548.224z M222.912,335.971L111.537,139.657l117.731,80.782L222.912,335.971L222.912,335.971z
	 M394.681,937.597l54.596,115.78l-75.405-65.386L394.681,937.597L394.681,937.597z M364.804,994.987l-33.598,72.187l-28.306-31.46
	L364.804,994.987L364.804,994.987z M518.378,992.159l-61.261,66.122l-57.656-122.268l121.399,53.969l-1.021,1.102L518.378,992.159
	L518.378,992.159z M852.695,1032.313l31.988,76.881l-59.243-28.323L852.695,1032.313L852.695,1032.313z M605.013,610.501
	l-10.915-107.297l192.97-64.187L605.013,610.501L605.013,610.501z M614.796,361.416l-48.971,99.646l-25.608-73.161l75.025-27.199
	L614.796,361.416L614.796,361.416z M671.894,163.174l-36.288-97.909h43.383l12.856,151.497L671.894,163.174L671.894,163.174z
	 M382.411,325.588l9.896,85.682L244.871,231.143l137.343,94.231L382.411,325.588L382.411,325.588z"/>
</svg>
