<?xml version="1.0" encoding="utf-8"?>
<!-- Designed by Vexels.com - 2019 All Rights Reserved - https://vexels.com/terms-and-conditions/  -->
<svg version="1.1" id="Layer_1" xmlns="http://www.w3.org/2000/svg" xmlns:xlink="http://www.w3.org/1999/xlink" x="0px" y="0px"
	 viewBox="0 0 1200 1200" enable-background="new 0 0 1200 1200" xml:space="preserve">
<path d="M1097.573,331.4l-0.522-1.216l-0.549-0.824l-0.439-0.534l-0.957-0.841L955.107,226.536l-1.176-0.521l-0.596-0.166
	l-154.863-15.834l-1.581,0.023l-289.6,38.205l-244.083,10.054l-1.242,0.263l-0.591,0.218l-0.818,0.406l-134.32,94.373
	l-42.722-38.807l-5.484-1.688l-4.817,3.117L47.385,357.39l-0.811,2.398l-0.056,0.472l0.127,1.902l16.852,79.833L48.27,487.282
	l-0.163,0.677l-0.137,1.169l0.011,0.876l0.533,2.071l0.179,0.389l0.437,0.705l0.777,0.969l70.771,71.465l18.378,72.699l3.69,4.477
	l21.43,10.087l6.839-0.617l35.27-25.436l1.008-1.069l0.435-0.685l0.404-0.805l10.905-34.134l53.301,16.195l3.755-0.132
	l50.848-16.674l92.808,42.061l1.151,187.432l-33.216,69.76l-25.34-3.494l-0.76,0.004l-0.71,0.08l-0.982,0.246l-0.633,0.24
	l-0.878,0.474l-33.847,28.765l-2.349,5.81l3.421,5.263l55.448,31.197l0.744,0.269l1.642,0.268l0.953-0.031l1.453-0.317l61.92-22.989
	l1.75-0.966l0.409-0.349l0.969-1.084l50.412-88.682l-0.001,0l0.196-0.375l0.492-1.382l24.458-155.968l175.212,179.611l11.552,74.436
	l3.749,5.061l40.024,19.365l0.932,0.317l0.909,0.194l1.553,0.051l0.36-0.041l1.146-0.286l0.633-0.231l0.65-0.34l1.095-0.781
	l0.458-0.432l8.661-11.64l92.135,7.09l1.8-0.109l0.829-0.226l1.038-0.435l0.531-0.324l0.883-0.674l0.533-0.565l0.506-0.641
	l93.855-143.321l0.395-1.337l0.029-0.618v-2.232l-13.803-81.535l41.134,51.602l22.247,86.576l-20.828,66.533L934.892,952.1
	l-4.362,5.027l2.053,6.356l26.309,24.144l1.098,0.664l0.597,0.264l1.999,0.415l79.229,4.041l6.623-5.311l46.975-211.015l0.075-0.577
	l-0.111-2.229l-0.48-1.419l-37.706-80.009l57.624,87.314l6.334,2.987l5.6-4.197l29.499-72.771l0.1-0.398l0.126-0.936l0.017-0.889
	l-58.914-372.156v-0.001L1097.573,331.4L1097.573,331.4z M1039.034,621.92l4.711,42.001l-9.909-21.026L1039.034,621.92
	L1039.034,621.92z M1048.303,772.515l-45.719-0.383l24.773-119.528l56.651,120.209L1048.303,772.515L1048.303,772.515z
	 M518.116,674.326l-24.047,153.541l-63.403-196.003l87.988,40.714l-0.059,0.281L518.116,674.326L518.116,674.326z M135.288,359.419
	l112.021-78.738l-24.224,28.32l-0.342,0.517l-23.641,47.813L135.288,359.419L135.288,359.419z M851.371,337.299l100.184-101.061
	l132.1,95.795l-265.143,38.413L851.371,337.299L851.371,337.299z M518.637,257.652l285.006,115.854l-283.115,76.008L518.637,257.652
	L518.637,257.652z M1034.144,583.246l-214.628-30.655l-1.179-1.4l-0.014,0.012l-1.385-1.144l-2.863-170.26L1034.144,583.246
	L1034.144,583.246z M74.442,442.665l72.253-51.852l-22.988,98.211L74.442,442.665L74.442,442.665z M121.605,506.183l5.545-6.877
	l7.886,1.55l-4.496,11.139L121.605,506.183L121.605,506.183z M210.971,505.181l-8.49,1.517l2.122-10.677l8.599-0.541
	L210.971,505.181L210.971,505.181z M223.387,486.833l-0.36-0.377l10.855-44.498l17.485,61.457l-26.807-13.618L223.387,486.833
	L223.387,486.833z M277.831,431.907l-22.317,67.81l-18.563-65.246L277.831,431.907L277.831,431.907z M905.978,680.693
	l-61.644-33.235l-0.645-1.632l-18.7-71.203l96.189,114.266L905.978,680.693L905.978,680.693z M516.102,456.153l21.419,125.436
	l-96.88-97.606L516.102,456.153L516.102,456.153z M606.967,581.821l-63.979,2.083l-20.626-120.792L606.967,581.821L606.967,581.821z
	 M557.006,593.453l47.599-1.549l-10.76,18.561L557.006,593.453L557.006,593.453z M623.01,580.018l186.071-199.785l2.851,169.529
	L623.01,580.018L623.01,580.018z M507.007,454.177l-70.906,26.15l-133.936-46.56L507.007,454.177L507.007,454.177z M603.133,614.383
	l13.454-23.208l194.24-31.109l23.452,89.155l43.892,111.136l-44.133,130.067l-48.207,17.609l-0.049-49.345l-1.005-3.002
	L603.133,614.383L603.133,614.383z M614.98,581.298l-2.004,0.314h-0.007L522.186,454.24l281.521-75.58L614.98,581.298
	L614.98,581.298z M278.505,426.856l-41.1,2.577l30.16-79.675L278.505,426.856L278.505,426.856z M253.949,371.604l-18.484,48.831
	l-6.533-104.169l36.698,24.479L253.949,371.604L253.949,371.604z M224.042,318.175l6.869,109.533l-47.627-27.107l19.634-39.712
	v-0.001L224.042,318.175L224.042,318.175z M178.763,403.781l0.003,0.001l52.054,29.627l-12.622,51.736l-17.347,1.091l-44.604-95.273
	L178.763,403.781L178.763,403.781z M192.577,516.409l0.078,0.065l-18.396,71.981L161.3,502.441l33.286-7.32l-3.343,16.812
	L192.577,516.409L192.577,516.409z M212.911,565.723l-12.993-48.41l12.716-2.271L212.911,565.723L212.911,565.723z M285.163,433.15
	l146.176,50.815l-102.747,93.752L285.163,433.15L285.163,433.15z M545.402,593.83l0.462-0.015l46.311,21.385l0.018,0.134
	l-60.907,45.746L545.402,593.83L545.402,593.83z M847.185,654.675l82.75,44.615l6.078,7.22l-49.608,47.472L847.185,654.675
	L847.185,654.675z M503.185,448.771l-219.625-21.883l-11.772-82.962L503.185,448.771L503.185,448.771z M228.717,310.11
	l33.159-38.767l3.986,63.545L228.717,310.11L228.717,310.11z M146.647,495.458l-0.313-0.723l-3.433-2.524l-14.153-2.782
	l22.691-96.943l44.918,95.941l-0.657,1.33l-36.58,8.044L146.647,495.458L146.647,495.458z M158.409,516.815l12.019,79.777
	l-27.203,5.703L158.409,516.815L158.409,516.815z M177.649,598.063l-0.531-0.604l19.087-74.682l15.596,58.112l-0.685,1.236
	l-22.999,30.134L177.649,598.063L177.649,598.063z M217.938,570.513l-0.311-56.689l2.349-3.182l3.614-15.723l28.297,14.374
	L217.938,570.513L217.938,570.513z M281.251,437.509l40.75,135.646l-63.812-65.573L281.251,437.509L281.251,437.509z
	 M430.895,818.717l-1.134-173.405l61.812,191.082L430.895,818.717L430.895,818.717z M429.136,625.646l9.117-136.972l98.251,98.988
	l-16.795,79.894L429.136,625.646L429.136,625.646z M772.922,856.564l-62.938,3.006l-0.7-0.725l-96.159-214.56L772.922,856.564
	L772.922,856.564z M842.152,897.075l0.586-1.171l35.374-104.253l-13.777,150.603L842.152,897.075L842.152,897.075z M813.499,368.401
	l-12.903-148.117l145.093,14.769L813.499,368.401L813.499,368.401z M196.589,362.416l-17.655,35.707l-26.812-15.262l-20.179-18.331
	L196.589,362.416L196.589,362.416z M72.808,437.683l-15.486-73.36l87.472,21.699L72.808,437.683L72.808,437.683z M119.927,492.333
	l-9.161,11.361l-52.163-15.77l13.614-40.488L119.927,492.333L119.927,492.333z M106.549,507.643l2.849,0.861l2.113,3.043
	l18.301,11.905l-4.646,32.475l-60.289-60.882L106.549,507.643L106.549,507.643z M134.766,524.131l2.774-2.761l8.455-20.947
	l9.917,1.863l-16.89,95.085l-8.984-35.541l-0.49-1.225L134.766,524.131L134.766,524.131z M190.342,621.846l4.494,0.932l-8.625,6.211
	L190.342,621.846L190.342,621.846z M191.109,616.582l15.45-20.245l-7.101,22.293l-8.215-1.704L191.109,616.582L191.109,616.582z
	 M254.236,515.368l16.291,79.96l-51.884-15.777L254.236,515.368L254.236,515.368z M433.219,489.02l-8.896,133.646l-91.919-41.657
	L433.219,489.02L433.219,489.02z M490.962,841.425l-47.087,82.938l-48.351-28.81l34.26-71.952L490.962,841.425L490.962,841.425z
	 M529.728,668.505l64.923-48.762l4.934,6.554l99.565,222.158L528.644,673.667L529.728,668.505L529.728,668.505z M775.785,861.434
	l0.009,8.763l-17.054,80.638l-46.619-86.361L775.785,861.434L775.785,861.434z M775.851,928.083l-9.007,14.963l-1.882,2.55
	l10.856-51.333L775.851,928.083L775.851,928.083z M785.136,932.048l0.716-2.583l-0.011-10.789l52.017-19.001l23.617,48.099
	l-82.005-6.311L785.136,932.048L785.136,932.048z M887.007,765.438l68.364,43.694l-85.816,130.945l15.433-168.686L887.007,765.438
	L887.007,765.438z M888.473,760.44l-0.132-1.391l50.898-48.707l0.193,0.23l15.788,92.529L888.473,760.44L888.473,760.44z
	 M947.939,704.654l-1.1-1.006l76.086-54.301L998.34,767.968L947.939,704.654L947.939,704.654z M1021.563,644.169l-78.061,55.709
	L828.159,562.86L1021.563,644.169L1021.563,644.169z M1141.311,698.385l-87.16-30.397l-8.389-74.548l-0.269-1.084L1141.311,698.385
	L1141.311,698.385z M1039.421,581.316L817.023,375.715l270.958-39.256L1039.421,581.316L1039.421,581.316z M808.631,370.136
	L527.134,255.708l268.445-35.41L808.631,370.136L808.631,370.136z M513.323,257.532l0.312-0.041l1.887,191.38L275.412,340.077
	L513.323,257.532L513.323,257.532z M270.025,321.393l-3.34-53.256l227.789-9.359l-223.513,77.55L270.025,321.393L270.025,321.393z
	 M171.507,606.583l9.028,12.245l-13.95,24.122l-18.208-8.57l-5.509-21.792L171.507,606.583L171.507,606.583z M322.197,580.542
	l-46.476,15.24l-16.236-79.694L322.197,580.542L322.197,580.542z M382.631,940.978l-16.567-45.131l22.67,3.158L382.631,940.978
	L382.631,940.978z M361.154,896.983l17.464,47.575l-44.094-24.859L361.154,896.983L361.154,896.983z M393.607,900.232l45.242,26.958
	l-51.968,19.298L393.607,900.232L393.607,900.232z M740.262,927.131l13.06,24.194l-30.486-14.745l-9.09-58.57L740.262,927.131
	L740.262,927.131z M1036.445,977.402l-32.978-41.189l18.451-58.895L1036.445,977.402L1036.445,977.402z M1000.139,940.055
	l34.075,42.559l-65.702-3.354L1000.139,940.055L1000.139,940.055z M991.777,942.458l-28.665,35.531l-19.837-18.257L991.777,942.458
	L991.777,942.458z M1025.371,866.296l0.122-0.391l0.071-2.738l-22.079-86.027l81.432,0.682l-43.818,196.83L1025.371,866.296
	L1025.371,866.296z M1035.942,592.825l-11.662,47.054l-190.903-80.257l204.298,29.18l-0.424,1.709L1035.942,592.825
	L1035.942,592.825z M1145.743,705.226l-25.974,63.94l-62.169-94.679L1145.743,705.226L1145.743,705.226z M1044.111,583.369
	l46.208-232.996l54.635,344.585L1044.111,583.369L1044.111,583.369z M135.848,374.832l5.784,5.254l-83.67-20.756l21.685-34.584
	l42.829,38.905l2.374,1.19L135.848,374.832L135.848,374.832z"/>
</svg>
