<svg id="examplesSvg" xmlns="http://www.w3.org/2000/svg" viewBox="0 0 2400 1200">
	<polygon id="examples-polygon-0" points="765.96 501.02 727.95 506.16 765.96 433.24"></polygon>
	<polygon id="examples-polygon-1" points="446.61 1044.96 547.557 1009.96 459.64 1009.96"></polygon>
	<polygon id="examples-polygon-2" points="547.557 1009.96 446.61 1044.96 577.33 1044.96"></polygon>
	<polygon id="examples-polygon-3" points="56.67 614.77 86.69 474.9 81.54 491.1"></polygon>
	<polygon id="examples-polygon-4" points="64.96 613.81 56.67 614.77 66.76 722.69"></polygon>
	<polygon id="examples-polygon-5" points="56.67 614.77 86.69 474.9 64.96 613.81"></polygon>
	<polygon id="examples-polygon-6" points="283.67 365.9 105.69 418.77 271.2 599.43"></polygon>
	<polygon id="examples-polygon-7" points="108.2 414.1 283.67 365.9 285.18 328.68"></polygon>
	<polygon id="examples-polygon-8" points="1132.96 673.67 1083.64 643.32 1132.96 649.96"></polygon>
	<polygon id="examples-polygon-9" points="1127.34 644.16 1127.2 606.14 1079.26 637.69"></polygon>
	<polygon id="examples-polygon-10" points="1127.2 606.14 1133.88 645.04 1145.68 615.8"></polygon>
	<polygon id="examples-polygon-11" points="1127.34 644.16 1127.2 606.14 1133.88 645.04"></polygon>
	<polygon id="examples-polygon-12" points="459.69 680.98 363.12 887.9 313.55 753.86"></polygon>
	<polygon id="examples-polygon-13" points="132.33 926.54 203.25 897.24 225.69 992.17"></polygon>
	<polygon id="examples-polygon-14" points="130.77 921.77 149.08 846.68 201.95 891.87"></polygon>
	<polygon id="examples-polygon-15" points="693.37 241.05 652.49 160.25 663.57 252.44"></polygon>
	<polygon id="examples-polygon-16" points="652.49 160.25 693.37 241.05 773.17 210.54"></polygon>
	<polygon id="examples-polygon-17" points="826.61 259.97 782.83 214.44 786.81 264.59"></polygon>
	<polygon id="examples-polygon-18" points="782.83 214.44 826.61 259.97 880.38 253.73"></polygon>
	<polygon id="examples-polygon-19" points="1114.17 383.87 1034.96 398.78 1106.99 373.98"></polygon>
	<polygon id="examples-polygon-20" points="464.42 1002.58 547.41 913.57 546.25 1004.8"></polygon>
	<polygon id="examples-polygon-21" points="301.78 703.87 458.62 675.94 280.04 605.65"></polygon>
	<polygon id="examples-polygon-22" points="458.62 675.94 301.78 703.87 311.15 746.21"></polygon>
	<polygon id="examples-polygon-23" points="111.91 609.49 105.69 418.77 75.58 611.78"></polygon>
	<polygon id="examples-polygon-24" points="105.69 418.77 111.91 609.49 271.2 599.43"></polygon>
	<polygon id="examples-polygon-25" points="76.05 616.77 306.47 748.19 274.61 604.24"></polygon>
	<polygon id="examples-polygon-26" points="306.47 748.19 76.05 616.77 210.62 781.28"></polygon>
	<polygon id="examples-polygon-27" points="261.93 809.1 300.88 763.57 277.39 859.25"></polygon>
	<polygon id="examples-polygon-28" points="258.08 805.66 213.56 785.55 233.43 817.34"></polygon>
	<polygon id="examples-polygon-29" points="213.56 785.55 258.08 805.66 301.47 755.2"></polygon>
	<polygon id="examples-polygon-30" points="233.88 828.35 272.73 878.15 254.1 817.79"></polygon>
	<polygon id="examples-polygon-31" points="272.73 878.15 234.36 986.18 256.08 946.04"></polygon>
	<polygon id="examples-polygon-32" points="234.36 986.18 211.96 802.48 211.97 892.26"></polygon>
	<polygon id="examples-polygon-33" points="227.22 826.57 272.73 878.15 233.88 828.35"></polygon>
	<polygon id="examples-polygon-34" points="227.22 826.57 234.36 986.18 272.73 878.15"></polygon>
	<polygon id="examples-polygon-35" points="211.96 802.48 227.22 826.57 234.36 986.18"></polygon>
	<polygon id="examples-polygon-36" points="201.96 793.31 201.96 885.299 151.16 842.04"></polygon>
	<polygon id="examples-polygon-37" points="736.19 349.73 663.86 274.67 734.1 355.3"></polygon>
	<polygon id="examples-polygon-38" points="663.86 274.67 775.98 214.73 663.95 257.5"></polygon>
	<polygon id="examples-polygon-39" points="736.19 349.73 663.86 274.67 775.98 214.73"></polygon>
	<polygon id="examples-polygon-40" points="672.2 416.44 563.0 383.42 655.92 468.2"></polygon>
	<polygon id="examples-polygon-41" points="563.0 383.42 672.2 416.44 651.33 331.58"></polygon>
	<polygon id="examples-polygon-42" points="651.62 317.58 639.36 286.69 656.03 279.82"></polygon>
	<polygon id="examples-polygon-43" points="645.39 315.42 568.54 374.37 649.85 326.65"></polygon>
	<polygon id="examples-polygon-44" points="568.54 374.37 645.39 315.42 634.52 288.02"></polygon>
	<polygon id="examples-polygon-45" points="567.02 393.85 654.05 473.26 624.53 509.53"></polygon>
	<polygon id="examples-polygon-46" points="725.73 353.28 655.67 326.09 661.17 278.97"></polygon>
	<polygon id="examples-polygon-47" points="653.96 269.7 627.88 261.38 637.11 276.72"></polygon>
	<polygon id="examples-polygon-48" points="627.88 261.38 653.96 269.7 653.96 260.28"></polygon>
	<polygon id="examples-polygon-49" points="630.56 284.96 521.75 302.77 559.27 378.26"></polygon>
	<polygon id="examples-polygon-50" points="521.75 302.77 630.56 284.96 616.27 260.94"></polygon>
	<polygon id="examples-polygon-51" points="516.68 303.82 555.78 382.5 391.38 284.97"></polygon>
	<polygon id="examples-polygon-52" points="371.51 519.13 307.95 439.96 376.34 293.15"></polygon>
	<polygon id="examples-polygon-53" points="376.39 524.78 381.51 284.93 554.36 387.48"></polygon>
	<polygon id="examples-polygon-54" points="676.75 413.97 732.45 361.25 656.54 331.79"></polygon>
	<polygon id="examples-polygon-55" points="732.45 361.25 676.75 413.97 714.53 401.56"></polygon>
	<polygon id="examples-polygon-56" points="698.93 411.95 743.31 418.96 715.25 406.59"></polygon>
	<polygon id="examples-polygon-57" points="743.31 418.96 698.93 411.95 688.1 415.51"></polygon>
	<polygon id="examples-polygon-58" points="767.33 417.23 736.61 364.19 720.74 399.88"></polygon>
	<polygon id="examples-polygon-59" points="736.61 364.19 767.33 417.23 787.22 362.58"></polygon>
	<polygon id="examples-polygon-60" points="788.78 352.52 778.59 224.22 740.12 354.07"></polygon>
	<polygon id="examples-polygon-61" points="788.78 352.52 778.59 224.22 782.03 267.57"></polygon>
	<polygon id="examples-polygon-62" points="515.78 298.63 386.67 279.2 513.51 183.78"></polygon>
	<polygon id="examples-polygon-63" points="369.88 533.08 461.4 671.67 430.56 535.75"></polygon>
	<polygon id="examples-polygon-64" points="461.4 671.67 355.44 515.09 280.79 600.58"></polygon>
	<polygon id="examples-polygon-65" points="355.44 515.09 369.88 533.08 461.4 671.67"></polygon>
	<polygon id="examples-polygon-66" points="441.64 561.93 593.39 538.03 435.71 535.82"></polygon>
	<polygon id="examples-polygon-67" points="593.39 538.03 441.64 561.93 466.31 670.64"></polygon>
	<polygon id="examples-polygon-68" points="603.85 526.96 559.46 389.8 384.17 524.85"></polygon>
	<polygon id="examples-polygon-69" points="559.46 389.8 610.58 522.83 621.01 513.64"></polygon>
	<polygon id="examples-polygon-70" points="603.85 526.96 559.46 389.8 610.58 522.83"></polygon>
	<polygon id="examples-polygon-71" points="882.96 315.26 870.33 423.06 807.59 392.05"></polygon>
	<polygon id="examples-polygon-72" points="1008.34 446.61 889.94 424.2 1001.94 408.87"></polygon>
	<polygon id="examples-polygon-73" points="1011.84 407.39 1102.33 393.46 1017.91 443.13"></polygon>
	<polygon id="examples-polygon-74" points="931.09 413.52 973.95 324.63 879.32 416.27"></polygon>
	<polygon id="examples-polygon-75" points="976.42 329.2 931.09 413.52 1000.96 403.96"></polygon>
	<polygon id="examples-polygon-76" points="879.32 416.27 922.61 275.44 888.46 309.74"></polygon>
	<polygon id="examples-polygon-77" points="922.61 275.44 879.32 416.27 973.95 324.63"></polygon>
	<polygon id="examples-polygon-78" points="917.08 266.65 792.6 362.34 776.55 407.97"></polygon>
	<polygon id="examples-polygon-79" points="792.6 362.34 917.08 266.65 945.28 237.62"></polygon>
	<polygon id="examples-polygon-80" points="891.96 267.4 892.69 258.65 899.29 261.29"></polygon>
	<polygon id="examples-polygon-81" points="887.74 257.9 793.55 349.36 886.58 271.88"></polygon>
	<polygon id="examples-polygon-82" points="793.55 349.36 887.74 257.9 787.21 269.57"></polygon>
	<polygon id="examples-polygon-83" points="619.37 251.74 520.76 297.74 521.87 180.2"></polygon>
	<polygon id="examples-polygon-84" points="223.5 1029.37 265.03 950.53 334.59 953.64"></polygon>
	<polygon id="examples-polygon-85" points="270.16 945.76 358.32 899.58 340.48 948.91"></polygon>
	<polygon id="examples-polygon-86" points="267.5 941.51 311.43 762.52 359.75 893.18"></polygon>
	<polygon id="examples-polygon-87" points="535.02 865.03 460.96 995.42 466.73 687.92"></polygon>
	<polygon id="examples-polygon-88" points="471.37 987.8 536.9 871.88 546.07 907.68"></polygon>
	<polygon id="examples-polygon-89" points="469.49 680.69 576.07 731.71 537.51 857.57"></polygon>
	<polygon id="examples-polygon-90" points="469.09 674.96 600.22 538.11 577.05 726.64"></polygon>
	<polygon id="examples-polygon-91" points="677.42 427.2 717.59 503.2 664.53 474.65"></polygon>
	<polygon id="examples-polygon-92" points="803.35 395.23 819.12 444.96 775.21 423.5"></polygon>
	<polygon id="examples-polygon-93" points="807.59 392.05 870.33 423.06 824.76 446.2"></polygon>
	<polygon id="examples-polygon-94" points="1008.96 451.83 1008.96 523.56 889.6 429.24"></polygon>
	<polygon id="examples-polygon-95" points="1012.71 536.01 1069.96 642.96 990.29 674.58"></polygon>
	<polygon id="examples-polygon-96" points="1114.17 383.87 1106.99 373.98 1130.94 341.56"></polygon>
	<polygon id="examples-polygon-97" points="649.8 184.32 619.37 251.74 656.19 250.2"></polygon>
	<polygon id="examples-polygon-98" points="619.37 251.74 647.23 157.9 521.87 180.2"></polygon>
	<polygon id="examples-polygon-99" points="649.8 184.32 619.37 251.74 647.23 157.9"></polygon>
	<polygon id="examples-polygon-100" points="290.29 326.22 297.58 438.56 367.19 289.12"></polygon>
	<polygon id="examples-polygon-101" points="298.21 443.8 279.38 594.61 352.27 511.13"></polygon>
	<polygon id="examples-polygon-102" points="297.58 438.56 279.38 594.61 298.21 443.8"></polygon>
	<polygon id="examples-polygon-103" points="290.29 326.22 297.58 438.56 279.38 594.61"></polygon>
	<polygon id="examples-polygon-104" points="81.21 632.44 202.5 783.26 148.73 837.64"></polygon>
	<polygon id="examples-polygon-105" points="211.72 988.46 204.36 1044.95 227.43 999.5"></polygon>
	<polygon id="examples-polygon-106" points="204.36 1044.95 131.38 931.98 161.888 1044.95"></polygon>
	<polygon id="examples-polygon-107" points="211.72 988.46 204.36 1044.95 131.38 931.98"></polygon>
	<polygon id="examples-polygon-108" points="215.57 1044.96 339.96 956.22 218.79 1038.63"></polygon>
	<polygon id="examples-polygon-109" points="339.96 956.22 215.57 1044.96 339.96 1044.962"></polygon>
	<polygon id="examples-polygon-110" points="629.12 519.74 720.32 510.35 662.21 479.09"></polygon>
	<polygon id="examples-polygon-111" points="720.32 510.35 617.39 530.42 700.43 550.14"></polygon>
	<polygon id="examples-polygon-112" points="617.39 530.42 629.12 519.74 720.32 510.35"></polygon>
	<polygon id="examples-polygon-113" points="723.63 503.91 679.34 420.13 759.46 424.98"></polygon>
	<polygon id="examples-polygon-114" points="1008.82 529.75 982.69 666.17 880.77 428.56"></polygon>
	<polygon id="examples-polygon-115" points="990.29 674.58 1069.96 642.96 1069.96 708.3770000000001"></polygon>
</svg>